<?xml version="1.0" encoding="UTF-8" standalone="no"?>
<!DOCTYPE svg PUBLIC "-//W3C//DTD SVG 1.1//EN"
 "http://www.w3.org/Graphics/SVG/1.1/DTD/svg11.dtd">
<!-- Generated by graphviz version 2.40.1 (20161225.0304)
 -->
<!-- Title: ov Pages: 1 -->
<svg width="1440pt" height="538pt"
 viewBox="0.00 0.00 1440.22 537.64" xmlns="http://www.w3.org/2000/svg" xmlns:xlink="http://www.w3.org/1999/xlink">
<g id="graph0" class="graph" transform="scale(1 1) rotate(0) translate(4 533.6424)">
<title>ov</title>
<polygon fill="#ffffff" stroke="transparent" points="-4,4 -4,-533.6424 1436.2161,-533.6424 1436.2161,4 -4,4"/>
<!-- www -->
<g id="node1" class="node">
<title>www</title>
<polygon fill="none" stroke="#000000" points="82.3941,-56.5442 82.3941,-71.4558 60.6562,-82 29.914,-82 8.1761,-71.4558 8.1761,-56.5442 29.914,-46 60.6562,-46 82.3941,-56.5442"/>
<polygon fill="none" stroke="#000000" points="86.3752,-54.0335 86.3752,-73.9665 61.5668,-86 29.0034,-86 4.195,-73.9665 4.195,-54.0335 29.0034,-42 61.5668,-42 86.3752,-54.0335"/>
<polygon fill="none" stroke="#000000" points="90.3563,-51.5228 90.3563,-76.4772 62.4775,-90 28.0927,-90 .2139,-76.4772 .2139,-51.5228 28.0927,-38 62.4775,-38 90.3563,-51.5228"/>
<text text-anchor="middle" x="45.2851" y="-60.3" font-family="Times,serif" font-size="14.00" fill="#000000">www</text>
</g>
<!-- nginx -->
<g id="node2" class="node">
<title>nginx</title>
<ellipse fill="none" stroke="#000000" cx="287.967" cy="-64" rx="36.2938" ry="18"/>
<text text-anchor="middle" x="287.967" y="-60.3" font-family="Times,serif" font-size="14.00" fill="#000000">nginx</text>
</g>
<!-- www&#45;&gt;nginx -->
<g id="edge1" class="edge">
<title>www&#45;&gt;nginx</title>
<path fill="none" stroke="#000000" d="M90.363,-64C133.3822,-64 197.9084,-64 241.4117,-64"/>
<polygon fill="#000000" stroke="#000000" points="241.4473,-67.5001 251.4473,-64 241.4473,-60.5001 241.4473,-67.5001"/>
<text text-anchor="middle" x="171.0702" y="-67.8" font-family="Times,serif" font-size="14.00" fill="#000000">http://pocoweb....</text>
</g>
<!-- pcwauth -->
<g id="node5" class="node">
<title>pcwauth</title>
<ellipse fill="none" stroke="#000000" cx="525.0592" cy="-280" rx="50.8918" ry="18"/>
<text text-anchor="middle" x="525.0592" y="-276.3" font-family="Times,serif" font-size="14.00" fill="#000000">pcwauth</text>
</g>
<!-- nginx&#45;&gt;pcwauth -->
<g id="edge2" class="edge">
<title>nginx&#45;&gt;pcwauth</title>
<path fill="none" stroke="#000000" d="M305.4009,-79.883C346.6305,-117.4447 450.3171,-211.9071 499.0225,-256.2796"/>
<polygon fill="#000000" stroke="#000000" points="496.876,-259.0587 506.6254,-263.2061 501.5902,-253.8841 496.876,-259.0587"/>
<text text-anchor="middle" x="399.3637" y="-219.8" font-family="Times,serif" font-size="14.00" fill="#000000">/rest/*</text>
</g>
<!-- wwwd -->
<g id="node12" class="node">
<title>wwwd</title>
<polygon fill="#c0c0c0" stroke="#000000" points="569.5592,-36 566.5592,-40 545.5592,-40 542.5592,-36 480.5592,-36 480.5592,0 569.5592,0 569.5592,-36"/>
<text text-anchor="middle" x="525.0592" y="-14.3" font-family="Times,serif" font-size="14.00" fill="#000000">www&#45;data</text>
</g>
<!-- nginx&#45;&gt;wwwd -->
<g id="edge4" class="edge">
<title>nginx&#45;&gt;wwwd</title>
<path fill="none" stroke="#000000" d="M310.1238,-49.6091C319.6696,-44.1048 331.1898,-38.3501 342.3637,-35 384.0606,-22.4986 433.2994,-18.4997 470.1473,-17.4882"/>
<polygon fill="#000000" stroke="#000000" points="470.2707,-20.9864 480.1951,-17.2775 470.1239,-13.988 470.2707,-20.9864"/>
<text text-anchor="middle" x="399.3637" y="-38.8" font-family="Times,serif" font-size="14.00" fill="#000000">*.css,*.js,*.html</text>
</g>
<!-- projectd -->
<g id="node13" class="node">
<title>projectd</title>
<polygon fill="#c0c0c0" stroke="#000000" points="1324.2161,-153 1321.2161,-157 1300.2161,-157 1297.2161,-153 1220.2161,-153 1220.2161,-117 1324.2161,-117 1324.2161,-153"/>
<text text-anchor="middle" x="1272.2161" y="-131.3" font-family="Times,serif" font-size="14.00" fill="#000000">project&#45;data</text>
</g>
<!-- nginx&#45;&gt;projectd -->
<g id="edge3" class="edge">
<title>nginx&#45;&gt;projectd</title>
<path fill="none" stroke="#000000" d="M324.5218,-64C371.0897,-64 454.0551,-64 525.0592,-64 525.0592,-64 525.0592,-64 1118.8718,-64 1164.6652,-64 1211.6246,-90.396 1241.3033,-110.999"/>
<polygon fill="#000000" stroke="#000000" points="1239.3969,-113.9384 1249.5694,-116.9 1243.4641,-108.2411 1239.3969,-113.9384"/>
<text text-anchor="middle" x="809.896" y="-67.8" font-family="Times,serif" font-size="14.00" fill="#000000">/project&#45;data</text>
</g>
<!-- pocoweb -->
<g id="node3" class="node">
<title>pocoweb</title>
<ellipse fill="none" stroke="#000000" cx="1118.8718" cy="-256" rx="51.9908" ry="18"/>
<text text-anchor="middle" x="1118.8718" y="-252.3" font-family="Times,serif" font-size="14.00" fill="#000000">pocoweb</text>
</g>
<!-- mysql -->
<g id="node4" class="node">
<title>mysql</title>
<ellipse fill="none" stroke="#000000" cx="1272.2161" cy="-321" rx="38.1938" ry="18"/>
<text text-anchor="middle" x="1272.2161" y="-317.3" font-family="Times,serif" font-size="14.00" fill="#000000">mysql</text>
</g>
<!-- pocoweb&#45;&gt;mysql -->
<g id="edge5" class="edge">
<title>pocoweb&#45;&gt;mysql</title>
<path fill="none" stroke="#000000" stroke-dasharray="1,5" d="M1154.7954,-269.1284C1169.5826,-274.7041 1186.8215,-281.4265 1202.2161,-288 1213.3975,-292.7744 1225.4206,-298.2969 1236.2932,-303.442"/>
<polygon fill="#000000" stroke="#000000" points="1234.9694,-306.6883 1245.5017,-307.838 1237.9852,-300.3713 1234.9694,-306.6883"/>
</g>
<!-- pocoweb&#45;&gt;projectd -->
<g id="edge6" class="edge">
<title>pocoweb&#45;&gt;projectd</title>
<path fill="none" stroke="#000000" d="M1160.5297,-244.9321C1174.6049,-239.9567 1189.867,-233.1076 1202.2161,-224 1224.8879,-207.2792 1244.1121,-181.3896 1256.6442,-161.8359"/>
<polygon fill="#000000" stroke="#000000" points="1259.7773,-163.4252 1262.0819,-153.084 1253.8315,-159.7309 1259.7773,-163.4252"/>
</g>
<!-- dbd -->
<g id="node15" class="node">
<title>dbd</title>
<polygon fill="#c0c0c0" stroke="#000000" points="1432.2161,-339 1429.2161,-343 1408.2161,-343 1405.2161,-339 1361.2161,-339 1361.2161,-303 1432.2161,-303 1432.2161,-339"/>
<text text-anchor="middle" x="1396.7161" y="-317.3" font-family="Times,serif" font-size="14.00" fill="#000000">db&#45;data</text>
</g>
<!-- mysql&#45;&gt;dbd -->
<g id="edge24" class="edge">
<title>mysql&#45;&gt;dbd</title>
<path fill="none" stroke="#000000" d="M1310.5861,-321C1323.2144,-321 1337.3882,-321 1350.5354,-321"/>
<polygon fill="#000000" stroke="#000000" points="1350.81,-324.5001 1360.81,-321 1350.8099,-317.5001 1350.81,-324.5001"/>
</g>
<!-- pcwauth&#45;&gt;pocoweb -->
<g id="edge7" class="edge">
<title>pcwauth&#45;&gt;pocoweb</title>
<path fill="none" stroke="#000000" d="M564.3264,-268.4995C601.8131,-258.1589 660.0795,-243.7408 711.7548,-238 835.4095,-224.2627 981.2879,-237.8923 1060.5081,-247.7727"/>
<polygon fill="#000000" stroke="#000000" points="1060.4056,-251.2878 1070.7675,-249.0781 1061.2892,-244.3438 1060.4056,-251.2878"/>
<text text-anchor="middle" x="809.896" y="-241.8" font-family="Times,serif" font-size="14.00" fill="#000000">/books/*</text>
</g>
<!-- pcwauth&#45;&gt;mysql -->
<g id="edge14" class="edge">
<title>pcwauth&#45;&gt;mysql</title>
<path fill="none" stroke="#000000" stroke-dasharray="1,5" d="M526.5637,-298.0017C530.5436,-332.701 544.7004,-408.2981 593.7548,-441 812.0409,-586.5198 952.9983,-535.7958 1183.2161,-410 1211.8671,-394.3445 1237.3914,-366.6461 1253.6789,-346.2955"/>
<polygon fill="#000000" stroke="#000000" points="1256.4823,-348.392 1259.869,-338.3531 1250.9611,-344.0889 1256.4823,-348.392"/>
</g>
<!-- pcwusers -->
<g id="node6" class="node">
<title>pcwusers</title>
<ellipse fill="none" stroke="#000000" cx="981.2824" cy="-419" rx="55.4913" ry="18"/>
<text text-anchor="middle" x="981.2824" y="-415.3" font-family="Times,serif" font-size="14.00" fill="#000000">pcwusers</text>
</g>
<!-- pcwauth&#45;&gt;pcwusers -->
<g id="edge8" class="edge">
<title>pcwauth&#45;&gt;pcwusers</title>
<path fill="none" stroke="#000000" d="M531.1963,-298.1676C540.4979,-322.5812 560.6733,-365.1935 593.7548,-385 696.2795,-446.3837 842.1995,-439.1586 922.5561,-428.8401"/>
<polygon fill="#000000" stroke="#000000" points="923.0535,-432.3048 932.4983,-427.5042 922.1213,-425.3671 923.0535,-432.3048"/>
<text text-anchor="middle" x="643.7548" y="-425.8" font-family="Times,serif" font-size="14.00" fill="#000000">/users/*</text>
</g>
<!-- pcwprofiler -->
<g id="node7" class="node">
<title>pcwprofiler</title>
<ellipse fill="none" stroke="#000000" cx="1118.8718" cy="-164" rx="64.189" ry="18"/>
<text text-anchor="middle" x="1118.8718" y="-160.3" font-family="Times,serif" font-size="14.00" fill="#000000">pcwprofiler</text>
</g>
<!-- pcwauth&#45;&gt;pcwprofiler -->
<g id="edge10" class="edge">
<title>pcwauth&#45;&gt;pcwprofiler</title>
<path fill="none" stroke="#000000" d="M546.1812,-263.4923C559.2161,-254.0874 576.6638,-242.8479 593.7548,-236 745.6517,-175.1388 939.9041,-164.0891 1044.3737,-163.0158"/>
<polygon fill="#000000" stroke="#000000" points="1044.533,-166.5148 1054.5066,-162.9403 1044.4808,-159.515 1044.533,-166.5148"/>
<text text-anchor="middle" x="809.896" y="-201.8" font-family="Times,serif" font-size="14.00" fill="#000000">/profile/*</text>
</g>
<!-- pcwpostcorrection -->
<g id="node8" class="node">
<title>pcwpostcorrection</title>
<ellipse fill="none" stroke="#000000" cx="809.896" cy="-280" rx="98.2828" ry="18"/>
<text text-anchor="middle" x="809.896" y="-276.3" font-family="Times,serif" font-size="14.00" fill="#000000">pcwpostcorrection</text>
</g>
<!-- pcwauth&#45;&gt;pcwpostcorrection -->
<g id="edge11" class="edge">
<title>pcwauth&#45;&gt;pcwpostcorrection</title>
<path fill="none" stroke="#000000" d="M575.9824,-280C610.7956,-280 658.2578,-280 701.3337,-280"/>
<polygon fill="#000000" stroke="#000000" points="701.6004,-283.5001 711.6003,-280 701.6003,-276.5001 701.6004,-283.5001"/>
<text text-anchor="middle" x="643.7548" y="-283.8" font-family="Times,serif" font-size="14.00" fill="#000000">/postcorrect/*</text>
</g>
<!-- pcwocr -->
<g id="node9" class="node">
<title>pcwocr</title>
<ellipse fill="none" stroke="#000000" cx="1118.8718" cy="-110" rx="44.6926" ry="18"/>
<text text-anchor="middle" x="1118.8718" y="-106.3" font-family="Times,serif" font-size="14.00" fill="#000000">pcwocr</text>
</g>
<!-- pcwauth&#45;&gt;pcwocr -->
<g id="edge9" class="edge">
<title>pcwauth&#45;&gt;pcwocr</title>
<path fill="none" stroke="#000000" d="M536.5868,-262.31C548.9217,-244.5478 569.957,-217.389 593.7548,-200 639.7439,-166.3957 656.5582,-164.0567 711.7548,-150 834.7602,-118.6747 984.4465,-111.5923 1063.6053,-110.1709"/>
<polygon fill="#000000" stroke="#000000" points="1063.8878,-113.667 1073.8322,-110.012 1063.779,-106.6679 1063.8878,-113.667"/>
<text text-anchor="middle" x="809.896" y="-153.8" font-family="Times,serif" font-size="14.00" fill="#000000">/ocr/*</text>
</g>
<!-- pcwpkg -->
<g id="node10" class="node">
<title>pcwpkg</title>
<ellipse fill="none" stroke="#000000" cx="981.2824" cy="-378" rx="47.3916" ry="18"/>
<text text-anchor="middle" x="981.2824" y="-374.3" font-family="Times,serif" font-size="14.00" fill="#000000">pcwpkg</text>
</g>
<!-- pcwauth&#45;&gt;pcwpkg -->
<g id="edge12" class="edge">
<title>pcwauth&#45;&gt;pcwpkg</title>
<path fill="none" stroke="#000000" d="M541.876,-297.1796C554.9195,-309.5188 574.0445,-325.5759 593.7548,-335 702.1725,-386.838 846.5849,-387.4584 924.9305,-382.9681"/>
<polygon fill="#000000" stroke="#000000" points="925.3112,-386.4512 935.0744,-382.3365 924.8762,-379.4648 925.3112,-386.4512"/>
<text text-anchor="middle" x="643.7548" y="-369.8" font-family="Times,serif" font-size="14.00" fill="#000000">/pkg/*</text>
</g>
<!-- pcwpool -->
<g id="node11" class="node">
<title>pcwpool</title>
<ellipse fill="none" stroke="#000000" cx="809.896" cy="-334" rx="49.2915" ry="18"/>
<text text-anchor="middle" x="809.896" y="-330.3" font-family="Times,serif" font-size="14.00" fill="#000000">pcwpool</text>
</g>
<!-- pcwauth&#45;&gt;pcwpool -->
<g id="edge13" class="edge">
<title>pcwauth&#45;&gt;pcwpool</title>
<path fill="none" stroke="#000000" d="M564.1089,-291.596C573.7487,-294.2381 584.0838,-296.8862 593.7548,-299 647.3881,-310.7227 709.2969,-320.358 753.0745,-326.5301"/>
<polygon fill="#000000" stroke="#000000" points="752.8527,-330.0329 763.2401,-327.947 753.8191,-323.0999 752.8527,-330.0329"/>
<text text-anchor="middle" x="643.7548" y="-319.8" font-family="Times,serif" font-size="14.00" fill="#000000">/pool/*</text>
</g>
<!-- pcwusers&#45;&gt;mysql -->
<g id="edge23" class="edge">
<title>pcwusers&#45;&gt;mysql</title>
<path fill="none" stroke="#000000" stroke-dasharray="1,5" d="M1035.2651,-414.8435C1076.9375,-410.2278 1135.3659,-400.646 1183.2161,-381 1205.8226,-371.7184 1228.6231,-356.201 1245.4866,-343.2723"/>
<polygon fill="#000000" stroke="#000000" points="1248.0307,-345.7245 1253.7314,-336.7941 1243.7059,-340.2203 1248.0307,-345.7245"/>
</g>
<!-- pcwprofiler&#45;&gt;mysql -->
<g id="edge16" class="edge">
<title>pcwprofiler&#45;&gt;mysql</title>
<path fill="none" stroke="#000000" stroke-dasharray="1,5" d="M1136.4049,-181.6021C1149.3734,-194.6482 1167.4459,-212.8847 1183.2161,-229 1205.6563,-251.9312 1231.0926,-278.2588 1249.0083,-296.8585"/>
<polygon fill="#000000" stroke="#000000" points="1246.7385,-299.5473 1256.1953,-304.3242 1251.7815,-294.6926 1246.7385,-299.5473"/>
</g>
<!-- pcwprofiler&#45;&gt;projectd -->
<g id="edge15" class="edge">
<title>pcwprofiler&#45;&gt;projectd</title>
<path fill="none" stroke="#000000" d="M1172.5042,-153.8572C1184.7029,-151.5502 1197.7594,-149.081 1210.2721,-146.7147"/>
<polygon fill="#000000" stroke="#000000" points="1210.9883,-150.1414 1220.1637,-144.844 1209.6874,-143.2633 1210.9883,-150.1414"/>
</g>
<!-- pcwpostcorrection&#45;&gt;pocoweb -->
<g id="edge18" class="edge">
<title>pcwpostcorrection&#45;&gt;pocoweb</title>
<path fill="none" stroke="#000000" d="M900.5113,-272.9614C951.0619,-269.0348 1012.6865,-264.2481 1057.5638,-260.7622"/>
<polygon fill="#000000" stroke="#000000" points="1058.0341,-264.2363 1067.733,-259.9723 1057.4919,-257.2573 1058.0341,-264.2363"/>
</g>
<!-- pcwpostcorrection&#45;&gt;mysql -->
<g id="edge19" class="edge">
<title>pcwpostcorrection&#45;&gt;mysql</title>
<path fill="none" stroke="#000000" stroke-dasharray="1,5" d="M898.489,-287.8567C995.3992,-296.451 1147.1561,-309.9093 1224.0671,-316.73"/>
<polygon fill="#000000" stroke="#000000" points="1224.1392,-320.25 1234.4093,-317.6472 1224.7576,-313.2774 1224.1392,-320.25"/>
</g>
<!-- pcwpostcorrection&#45;&gt;projectd -->
<g id="edge17" class="edge">
<title>pcwpostcorrection&#45;&gt;projectd</title>
<path fill="none" stroke="#000000" d="M876.754,-266.8131C968.532,-248.2415 1128.4096,-214.0756 1183.2161,-191 1202.9488,-182.6918 1223.2808,-170.2426 1239.5214,-159.1904"/>
<polygon fill="#000000" stroke="#000000" points="1241.8817,-161.8122 1248.0933,-153.2292 1237.8851,-156.0652 1241.8817,-161.8122"/>
</g>
<!-- pcwocr&#45;&gt;mysql -->
<g id="edge21" class="edge">
<title>pcwocr&#45;&gt;mysql</title>
<path fill="none" stroke="#000000" stroke-dasharray="1,5" d="M1155.9735,-120.2835C1165.6866,-124.3071 1175.5678,-129.7483 1183.2161,-137 1229.4286,-180.8164 1254.5867,-253.6246 1265.4993,-293.2434"/>
<polygon fill="#000000" stroke="#000000" points="1262.146,-294.2536 1268.0883,-303.0252 1268.913,-292.4625 1262.146,-294.2536"/>
</g>
<!-- pcwocr&#45;&gt;projectd -->
<g id="edge20" class="edge">
<title>pcwocr&#45;&gt;projectd</title>
<path fill="none" stroke="#000000" d="M1160.7738,-116.8314C1175.9015,-119.2977 1193.3203,-122.1375 1209.824,-124.8281"/>
<polygon fill="#000000" stroke="#000000" points="1209.52,-128.3247 1219.9529,-126.4794 1210.6464,-121.4159 1209.52,-128.3247"/>
</g>
<!-- ocrd -->
<g id="node14" class="node">
<title>ocrd</title>
<polygon fill="#c0c0c0" stroke="#000000" points="1310.2161,-57 1307.2161,-61 1286.2161,-61 1283.2161,-57 1234.2161,-57 1234.2161,-21 1310.2161,-21 1310.2161,-57"/>
<text text-anchor="middle" x="1272.2161" y="-35.3" font-family="Times,serif" font-size="14.00" fill="#000000">ocr&#45;data</text>
</g>
<!-- pcwocr&#45;&gt;ocrd -->
<g id="edge22" class="edge">
<title>pcwocr&#45;&gt;ocrd</title>
<path fill="none" stroke="#000000" d="M1148.4381,-96.3105C1170.0464,-86.3056 1199.8045,-72.5273 1224.7271,-60.9879"/>
<polygon fill="#000000" stroke="#000000" points="1226.4112,-64.0652 1234.0151,-56.6875 1223.47,-57.713 1226.4112,-64.0652"/>
</g>
<!-- pcwpkg&#45;&gt;mysql -->
<g id="edge25" class="edge">
<title>pcwpkg&#45;&gt;mysql</title>
<path fill="none" stroke="#000000" stroke-dasharray="1,5" d="M1029.1237,-377.3557C1074.467,-375.6863 1144.0934,-370.3596 1202.2161,-354 1214.5429,-350.5304 1227.394,-345.07 1238.6704,-339.5821"/>
<polygon fill="#000000" stroke="#000000" points="1240.3775,-342.6411 1247.7261,-335.0089 1237.222,-336.3926 1240.3775,-342.6411"/>
</g>
<!-- pcwpool&#45;&gt;mysql -->
<g id="edge26" class="edge">
<title>pcwpool&#45;&gt;mysql</title>
<path fill="none" stroke="#000000" stroke-dasharray="1,5" d="M859.3724,-332.6088C948.5521,-330.1011 1135.1916,-324.853 1223.6806,-322.3648"/>
<polygon fill="#000000" stroke="#000000" points="1223.8201,-325.8623 1233.7178,-322.0825 1223.6233,-318.8651 1223.8201,-325.8623"/>
</g>
</g>
</svg>
