<?xml version="1.0" encoding="UTF-8" standalone="no"?>
<!DOCTYPE svg PUBLIC "-//W3C//DTD SVG 1.1//EN"
 "http://www.w3.org/Graphics/SVG/1.1/DTD/svg11.dtd">
<!-- Generated by graphviz version 2.40.1 (20161225.0304)
 -->
<!-- Title: ov Pages: 1 -->
<svg width="1440pt" height="447pt"
 viewBox="0.00 0.00 1440.22 447.00" xmlns="http://www.w3.org/2000/svg" xmlns:xlink="http://www.w3.org/1999/xlink">
<g id="graph0" class="graph" transform="scale(1 1) rotate(0) translate(4 442.997)">
<title>ov</title>
<polygon fill="#ffffff" stroke="transparent" points="-4,4 -4,-442.997 1436.2161,-442.997 1436.2161,4 -4,4"/>
<!-- www -->
<g id="node1" class="node">
<title>www</title>
<polygon fill="none" stroke="#000000" points="82.3941,-56.5442 82.3941,-71.4558 60.6562,-82 29.914,-82 8.1761,-71.4558 8.1761,-56.5442 29.914,-46 60.6562,-46 82.3941,-56.5442"/>
<polygon fill="none" stroke="#000000" points="86.3752,-54.0335 86.3752,-73.9665 61.5668,-86 29.0034,-86 4.195,-73.9665 4.195,-54.0335 29.0034,-42 61.5668,-42 86.3752,-54.0335"/>
<polygon fill="none" stroke="#000000" points="90.3563,-51.5228 90.3563,-76.4772 62.4775,-90 28.0927,-90 .2139,-76.4772 .2139,-51.5228 28.0927,-38 62.4775,-38 90.3563,-51.5228"/>
<text text-anchor="middle" x="45.2851" y="-60.3" font-family="Times,serif" font-size="14.00" fill="#000000">www</text>
</g>
<!-- nginx -->
<g id="node2" class="node">
<title>nginx</title>
<ellipse fill="none" stroke="#000000" cx="287.967" cy="-64" rx="36.2938" ry="18"/>
<text text-anchor="middle" x="287.967" y="-60.3" font-family="Times,serif" font-size="14.00" fill="#000000">nginx</text>
</g>
<!-- www&#45;&gt;nginx -->
<g id="edge1" class="edge">
<title>www&#45;&gt;nginx</title>
<path fill="none" stroke="#000000" d="M90.363,-64C133.3822,-64 197.9084,-64 241.4117,-64"/>
<polygon fill="#000000" stroke="#000000" points="241.4473,-67.5001 251.4473,-64 241.4473,-60.5001 241.4473,-67.5001"/>
<text text-anchor="middle" x="171.0702" y="-67.8" font-family="Times,serif" font-size="14.00" fill="#000000">http://pocoweb....</text>
</g>
<!-- pcwauth -->
<g id="node5" class="node">
<title>pcwauth</title>
<ellipse fill="none" stroke="#000000" cx="525.0592" cy="-253" rx="50.8918" ry="18"/>
<text text-anchor="middle" x="525.0592" y="-249.3" font-family="Times,serif" font-size="14.00" fill="#000000">pcwauth</text>
</g>
<!-- nginx&#45;&gt;pcwauth -->
<g id="edge2" class="edge">
<title>nginx&#45;&gt;pcwauth</title>
<path fill="none" stroke="#000000" d="M307.3692,-79.4667C349.0834,-112.7194 447.4772,-191.1548 496.4031,-230.1565"/>
<polygon fill="#000000" stroke="#000000" points="494.3759,-233.0165 504.3771,-236.5131 498.7393,-227.5428 494.3759,-233.0165"/>
<text text-anchor="middle" x="399.3637" y="-200.8" font-family="Times,serif" font-size="14.00" fill="#000000">/rest/*</text>
</g>
<!-- wwwd -->
<g id="node11" class="node">
<title>wwwd</title>
<polygon fill="#c0c0c0" stroke="#000000" points="569.5592,-36 566.5592,-40 545.5592,-40 542.5592,-36 480.5592,-36 480.5592,0 569.5592,0 569.5592,-36"/>
<text text-anchor="middle" x="525.0592" y="-14.3" font-family="Times,serif" font-size="14.00" fill="#000000">www&#45;data</text>
</g>
<!-- nginx&#45;&gt;wwwd -->
<g id="edge4" class="edge">
<title>nginx&#45;&gt;wwwd</title>
<path fill="none" stroke="#000000" d="M310.1238,-49.6091C319.6696,-44.1048 331.1898,-38.3501 342.3637,-35 384.0606,-22.4986 433.2994,-18.4997 470.1473,-17.4882"/>
<polygon fill="#000000" stroke="#000000" points="470.2707,-20.9864 480.1951,-17.2775 470.1239,-13.988 470.2707,-20.9864"/>
<text text-anchor="middle" x="399.3637" y="-38.8" font-family="Times,serif" font-size="14.00" fill="#000000">*.css,*.js,*.html</text>
</g>
<!-- projectd -->
<g id="node12" class="node">
<title>projectd</title>
<polygon fill="#c0c0c0" stroke="#000000" points="1324.2161,-133 1321.2161,-137 1300.2161,-137 1297.2161,-133 1220.2161,-133 1220.2161,-97 1324.2161,-97 1324.2161,-133"/>
<text text-anchor="middle" x="1272.2161" y="-111.3" font-family="Times,serif" font-size="14.00" fill="#000000">project&#45;data</text>
</g>
<!-- nginx&#45;&gt;projectd -->
<g id="edge3" class="edge">
<title>nginx&#45;&gt;projectd</title>
<path fill="none" stroke="#000000" d="M324.5218,-64C371.0897,-64 454.0551,-64 525.0592,-64 525.0592,-64 525.0592,-64 1118.8718,-64 1157.6056,-64 1199.1597,-78.8326 1229.227,-92.4996"/>
<polygon fill="#000000" stroke="#000000" points="1228.0271,-95.8024 1238.5674,-96.8757 1230.9969,-89.4637 1228.0271,-95.8024"/>
<text text-anchor="middle" x="809.896" y="-67.8" font-family="Times,serif" font-size="14.00" fill="#000000">/project&#45;data</text>
</g>
<!-- pocoweb -->
<g id="node3" class="node">
<title>pocoweb</title>
<ellipse fill="none" stroke="#000000" cx="1118.8718" cy="-149" rx="51.9908" ry="18"/>
<text text-anchor="middle" x="1118.8718" y="-145.3" font-family="Times,serif" font-size="14.00" fill="#000000">pocoweb</text>
</g>
<!-- mysql -->
<g id="node4" class="node">
<title>mysql</title>
<ellipse fill="none" stroke="#000000" cx="1272.2161" cy="-288" rx="38.1938" ry="18"/>
<text text-anchor="middle" x="1272.2161" y="-284.3" font-family="Times,serif" font-size="14.00" fill="#000000">mysql</text>
</g>
<!-- pocoweb&#45;&gt;mysql -->
<g id="edge5" class="edge">
<title>pocoweb&#45;&gt;mysql</title>
<path fill="none" stroke="#000000" stroke-dasharray="1,5" d="M1156.149,-161.5546C1171.4831,-167.904 1188.7629,-176.6945 1202.2161,-188 1226.6331,-208.519 1246.5341,-239.4737 1258.7901,-261.5023"/>
<polygon fill="#000000" stroke="#000000" points="1255.7324,-263.2062 1263.5654,-270.3402 1261.8909,-259.8785 1255.7324,-263.2062"/>
</g>
<!-- pocoweb&#45;&gt;projectd -->
<g id="edge6" class="edge">
<title>pocoweb&#45;&gt;projectd</title>
<path fill="none" stroke="#000000" d="M1162.8141,-139.257C1177.6188,-135.9744 1194.4278,-132.2475 1210.3511,-128.7169"/>
<polygon fill="#000000" stroke="#000000" points="1211.12,-132.1315 1220.1252,-126.5498 1209.6047,-125.2975 1211.12,-132.1315"/>
</g>
<!-- dbd -->
<g id="node14" class="node">
<title>dbd</title>
<polygon fill="#c0c0c0" stroke="#000000" points="1432.2161,-306 1429.2161,-310 1408.2161,-310 1405.2161,-306 1361.2161,-306 1361.2161,-270 1432.2161,-270 1432.2161,-306"/>
<text text-anchor="middle" x="1396.7161" y="-284.3" font-family="Times,serif" font-size="14.00" fill="#000000">db&#45;data</text>
</g>
<!-- mysql&#45;&gt;dbd -->
<g id="edge20" class="edge">
<title>mysql&#45;&gt;dbd</title>
<path fill="none" stroke="#000000" d="M1310.5861,-288C1323.2144,-288 1337.3882,-288 1350.5354,-288"/>
<polygon fill="#000000" stroke="#000000" points="1350.81,-291.5001 1360.81,-288 1350.8099,-284.5001 1350.81,-291.5001"/>
</g>
<!-- pcwauth&#45;&gt;pocoweb -->
<g id="edge7" class="edge">
<title>pcwauth&#45;&gt;pocoweb</title>
<path fill="none" stroke="#000000" d="M536.7105,-235.31C548.9926,-217.9417 569.8508,-191.8181 593.7548,-176 639.935,-145.4409 657.1168,-145.0089 711.7548,-136 834.9562,-115.6861 981.8847,-129.5792 1061.1982,-140.1557"/>
<polygon fill="#000000" stroke="#000000" points="1061.0826,-143.6723 1071.4641,-141.5569 1062.0293,-136.7366 1061.0826,-143.6723"/>
<text text-anchor="middle" x="809.896" y="-139.8" font-family="Times,serif" font-size="14.00" fill="#000000">/books/*</text>
</g>
<!-- pcwauth&#45;&gt;mysql -->
<g id="edge13" class="edge">
<title>pcwauth&#45;&gt;mysql</title>
<path fill="none" stroke="#000000" stroke-dasharray="1,5" d="M528.5864,-271.3285C535.3709,-300.9516 553.3069,-358.593 593.7548,-384 760.4157,-488.6867 841.215,-415.2525 1036.5275,-391 1103.252,-382.7146 1122.4576,-382.7959 1183.2161,-354 1206.6695,-342.8845 1230.1227,-325.1528 1247.0613,-310.8664"/>
<polygon fill="#000000" stroke="#000000" points="1249.5358,-313.3543 1254.8247,-304.174 1244.9652,-308.0523 1249.5358,-313.3543"/>
</g>
<!-- pcwusers -->
<g id="node6" class="node">
<title>pcwusers</title>
<ellipse fill="none" stroke="#000000" cx="981.2824" cy="-367" rx="55.4913" ry="18"/>
<text text-anchor="middle" x="981.2824" y="-363.3" font-family="Times,serif" font-size="14.00" fill="#000000">pcwusers</text>
</g>
<!-- pcwauth&#45;&gt;pcwusers -->
<g id="edge8" class="edge">
<title>pcwauth&#45;&gt;pcwusers</title>
<path fill="none" stroke="#000000" d="M534.8065,-270.6756C546.2333,-289.4773 567.052,-318.3497 593.7548,-332 698.5229,-385.5569 840.1229,-382.4372 919.9344,-374.9722"/>
<polygon fill="#000000" stroke="#000000" points="920.6957,-378.414 930.3019,-373.9452 920.0056,-371.4481 920.6957,-378.414"/>
<text text-anchor="middle" x="643.7548" y="-368.8" font-family="Times,serif" font-size="14.00" fill="#000000">/users/*</text>
</g>
<!-- pcwprofiler -->
<g id="node7" class="node">
<title>pcwprofiler</title>
<ellipse fill="none" stroke="#000000" cx="1118.8718" cy="-242" rx="64.189" ry="18"/>
<text text-anchor="middle" x="1118.8718" y="-238.3" font-family="Times,serif" font-size="14.00" fill="#000000">pcwprofiler</text>
</g>
<!-- pcwauth&#45;&gt;pcwprofiler -->
<g id="edge9" class="edge">
<title>pcwauth&#45;&gt;pcwprofiler</title>
<path fill="none" stroke="#000000" d="M574.5455,-248.951C612.1498,-246.085 665.171,-242.4956 711.7548,-241 827.9398,-237.2699 962.8714,-238.7453 1044.5087,-240.2773"/>
<polygon fill="#000000" stroke="#000000" points="1044.6197,-243.78 1054.6854,-240.4737 1044.7549,-236.7813 1044.6197,-243.78"/>
<text text-anchor="middle" x="809.896" y="-244.8" font-family="Times,serif" font-size="14.00" fill="#000000">/profile/*</text>
</g>
<!-- pcwpostcorrection -->
<g id="node8" class="node">
<title>pcwpostcorrection</title>
<ellipse fill="none" stroke="#000000" cx="809.896" cy="-178" rx="98.2828" ry="18"/>
<text text-anchor="middle" x="809.896" y="-174.3" font-family="Times,serif" font-size="14.00" fill="#000000">pcwpostcorrection</text>
</g>
<!-- pcwauth&#45;&gt;pcwpostcorrection -->
<g id="edge10" class="edge">
<title>pcwauth&#45;&gt;pcwpostcorrection</title>
<path fill="none" stroke="#000000" d="M543.0215,-235.8868C556.0436,-224.5558 574.6546,-210.4558 593.7548,-203 627.3834,-189.8729 666.0254,-183.0627 701.2513,-179.6826"/>
<polygon fill="#000000" stroke="#000000" points="701.9183,-183.1376 711.575,-178.779 701.3079,-176.1643 701.9183,-183.1376"/>
<text text-anchor="middle" x="643.7548" y="-206.8" font-family="Times,serif" font-size="14.00" fill="#000000">/postcorrect/*</text>
</g>
<!-- pcwpkg -->
<g id="node9" class="node">
<title>pcwpkg</title>
<ellipse fill="none" stroke="#000000" cx="981.2824" cy="-326" rx="47.3916" ry="18"/>
<text text-anchor="middle" x="981.2824" y="-322.3" font-family="Times,serif" font-size="14.00" fill="#000000">pcwpkg</text>
</g>
<!-- pcwauth&#45;&gt;pcwpkg -->
<g id="edge11" class="edge">
<title>pcwauth&#45;&gt;pcwpkg</title>
<path fill="none" stroke="#000000" d="M550.3177,-268.6245C562.9508,-275.8101 578.7206,-283.8603 593.7548,-289 706.2158,-327.4469 847.0354,-330.5324 924.1852,-328.6961"/>
<polygon fill="#000000" stroke="#000000" points="924.2832,-332.1948 934.1834,-328.4217 924.0912,-325.1975 924.2832,-332.1948"/>
<text text-anchor="middle" x="643.7548" y="-316.8" font-family="Times,serif" font-size="14.00" fill="#000000">/pkg/*</text>
</g>
<!-- pcwpool -->
<g id="node10" class="node">
<title>pcwpool</title>
<ellipse fill="none" stroke="#000000" cx="809.896" cy="-283" rx="49.2915" ry="18"/>
<text text-anchor="middle" x="809.896" y="-279.3" font-family="Times,serif" font-size="14.00" fill="#000000">pcwpool</text>
</g>
<!-- pcwauth&#45;&gt;pcwpool -->
<g id="edge12" class="edge">
<title>pcwauth&#45;&gt;pcwpool</title>
<path fill="none" stroke="#000000" d="M573.7008,-258.1231C623.156,-263.3319 699.7696,-271.4011 752.2455,-276.928"/>
<polygon fill="#000000" stroke="#000000" points="752.092,-280.4312 762.4037,-277.9979 752.8253,-273.4697 752.092,-280.4312"/>
<text text-anchor="middle" x="643.7548" y="-273.8" font-family="Times,serif" font-size="14.00" fill="#000000">/pool/*</text>
</g>
<!-- pcwusers&#45;&gt;mysql -->
<g id="edge19" class="edge">
<title>pcwusers&#45;&gt;mysql</title>
<path fill="none" stroke="#000000" stroke-dasharray="1,5" d="M1031.7876,-359.6716C1073.073,-352.9869 1132.6666,-341.7435 1183.2161,-326 1201.0165,-320.4561 1220.1078,-312.5784 1236.0263,-305.4318"/>
<polygon fill="#000000" stroke="#000000" points="1237.85,-308.4464 1245.4879,-301.1039 1234.9382,-302.0808 1237.85,-308.4464"/>
</g>
<!-- pcwprofiler&#45;&gt;mysql -->
<g id="edge15" class="edge">
<title>pcwprofiler&#45;&gt;mysql</title>
<path fill="none" stroke="#000000" stroke-dasharray="1,5" d="M1162.8141,-255.1818C1183.8057,-261.4788 1208.8267,-268.9845 1229.6389,-275.2277"/>
<polygon fill="#000000" stroke="#000000" points="1228.8976,-278.6594 1239.4816,-278.1803 1230.9089,-271.9546 1228.8976,-278.6594"/>
</g>
<!-- pcwprofiler&#45;&gt;projectd -->
<g id="edge14" class="edge">
<title>pcwprofiler&#45;&gt;projectd</title>
<path fill="none" stroke="#000000" d="M1139.5525,-224.8722C1166.1183,-202.8704 1212.403,-164.5373 1242.6743,-139.4665"/>
<polygon fill="#000000" stroke="#000000" points="1244.9114,-142.1584 1250.3805,-133.0843 1240.4464,-136.7672 1244.9114,-142.1584"/>
</g>
<!-- pcwpostcorrection&#45;&gt;pocoweb -->
<g id="edge17" class="edge">
<title>pcwpostcorrection&#45;&gt;pocoweb</title>
<path fill="none" stroke="#000000" d="M897.6096,-169.7673C949.0284,-164.9412 1012.6678,-158.9681 1058.4777,-154.6685"/>
<polygon fill="#000000" stroke="#000000" points="1058.9235,-158.1421 1068.5526,-153.7229 1058.2693,-151.1728 1058.9235,-158.1421"/>
</g>
<!-- pcwpostcorrection&#45;&gt;mysql -->
<g id="edge18" class="edge">
<title>pcwpostcorrection&#45;&gt;mysql</title>
<path fill="none" stroke="#000000" stroke-dasharray="1,5" d="M906.834,-181.2515C1000.4501,-185.5271 1134.9312,-194.9901 1183.2161,-215 1209.3119,-225.8145 1233.7237,-246.9423 1250.3552,-263.6972"/>
<polygon fill="#000000" stroke="#000000" points="1247.9677,-266.2636 1257.4274,-271.035 1253.0079,-261.4059 1247.9677,-266.2636"/>
</g>
<!-- pcwpostcorrection&#45;&gt;projectd -->
<g id="edge16" class="edge">
<title>pcwpostcorrection&#45;&gt;projectd</title>
<path fill="none" stroke="#000000" d="M862.8094,-162.772C912.0001,-149.3626 987.5527,-130.6602 1054.5275,-122 1106.6034,-115.2663 1166.2375,-113.7782 1209.9064,-113.8262"/>
<polygon fill="#000000" stroke="#000000" points="1210.0757,-117.3268 1220.0891,-113.8655 1210.1027,-110.3269 1210.0757,-117.3268"/>
</g>
<!-- pcwpkg&#45;&gt;mysql -->
<g id="edge21" class="edge">
<title>pcwpkg&#45;&gt;mysql</title>
<path fill="none" stroke="#000000" stroke-dasharray="1,5" d="M1027.99,-322.1448C1072.8155,-318.1577 1142.3478,-311.2198 1202.2161,-302 1210.4019,-300.7394 1219.0842,-299.1829 1227.4458,-297.5709"/>
<polygon fill="#000000" stroke="#000000" points="1228.3018,-300.9694 1237.4313,-295.5932 1226.9418,-294.1028 1228.3018,-300.9694"/>
</g>
<!-- pcwpool&#45;&gt;mysql -->
<g id="edge22" class="edge">
<title>pcwpool&#45;&gt;mysql</title>
<path fill="none" stroke="#000000" stroke-dasharray="1,5" d="M859.3724,-283.5351C948.5521,-284.4996 1135.1916,-286.5181 1223.6806,-287.4751"/>
<polygon fill="#000000" stroke="#000000" points="1223.6805,-290.9752 1233.7178,-287.5836 1223.7563,-283.9756 1223.6805,-290.9752"/>
</g>
<!-- ocrd -->
<g id="node13" class="node">
<title>ocrd</title>
<polygon fill="#c0c0c0" stroke="#000000" points="83.2851,-144 80.2851,-148 59.2851,-148 56.2851,-144 7.2851,-144 7.2851,-108 83.2851,-108 83.2851,-144"/>
<text text-anchor="middle" x="45.2851" y="-122.3" font-family="Times,serif" font-size="14.00" fill="#000000">ocr&#45;data</text>
</g>
</g>
</svg>
