<?xml version="1.0" encoding="UTF-8" standalone="no"?>
<!DOCTYPE svg PUBLIC "-//W3C//DTD SVG 1.1//EN"
 "http://www.w3.org/Graphics/SVG/1.1/DTD/svg11.dtd">
<!-- Generated by graphviz version 2.40.1 (20161225.0304)
 -->
<!-- Title: ov Pages: 1 -->
<svg width="1440pt" height="454pt"
 viewBox="0.00 0.00 1440.22 454.00" xmlns="http://www.w3.org/2000/svg" xmlns:xlink="http://www.w3.org/1999/xlink">
<g id="graph0" class="graph" transform="scale(1 1) rotate(0) translate(4 450)">
<title>ov</title>
<polygon fill="#ffffff" stroke="transparent" points="-4,4 -4,-450 1436.2161,-450 1436.2161,4 -4,4"/>
<!-- www -->
<g id="node1" class="node">
<title>www</title>
<polygon fill="none" stroke="#000000" points="82.3941,-56.5442 82.3941,-71.4558 60.6562,-82 29.914,-82 8.1761,-71.4558 8.1761,-56.5442 29.914,-46 60.6562,-46 82.3941,-56.5442"/>
<polygon fill="none" stroke="#000000" points="86.3752,-54.0335 86.3752,-73.9665 61.5668,-86 29.0034,-86 4.195,-73.9665 4.195,-54.0335 29.0034,-42 61.5668,-42 86.3752,-54.0335"/>
<polygon fill="none" stroke="#000000" points="90.3563,-51.5228 90.3563,-76.4772 62.4775,-90 28.0927,-90 .2139,-76.4772 .2139,-51.5228 28.0927,-38 62.4775,-38 90.3563,-51.5228"/>
<text text-anchor="middle" x="45.2851" y="-60.3" font-family="Times,serif" font-size="14.00" fill="#000000">www</text>
</g>
<!-- nginx -->
<g id="node2" class="node">
<title>nginx</title>
<ellipse fill="none" stroke="#000000" cx="287.967" cy="-64" rx="36.2938" ry="18"/>
<text text-anchor="middle" x="287.967" y="-60.3" font-family="Times,serif" font-size="14.00" fill="#000000">nginx</text>
</g>
<!-- www&#45;&gt;nginx -->
<g id="edge1" class="edge">
<title>www&#45;&gt;nginx</title>
<path fill="none" stroke="#000000" d="M90.363,-64C133.3822,-64 197.9084,-64 241.4117,-64"/>
<polygon fill="#000000" stroke="#000000" points="241.4473,-67.5001 251.4473,-64 241.4473,-60.5001 241.4473,-67.5001"/>
<text text-anchor="middle" x="171.0702" y="-67.8" font-family="Times,serif" font-size="14.00" fill="#000000">http://pocoweb....</text>
</g>
<!-- pcwauth -->
<g id="node5" class="node">
<title>pcwauth</title>
<ellipse fill="none" stroke="#000000" cx="525.0592" cy="-267" rx="50.8918" ry="18"/>
<text text-anchor="middle" x="525.0592" y="-263.3" font-family="Times,serif" font-size="14.00" fill="#000000">pcwauth</text>
</g>
<!-- nginx&#45;&gt;pcwauth -->
<g id="edge2" class="edge">
<title>nginx&#45;&gt;pcwauth</title>
<path fill="none" stroke="#000000" d="M306.1775,-79.592C347.5719,-115.0342 448.92,-201.809 497.8066,-243.6661"/>
<polygon fill="#000000" stroke="#000000" points="495.5915,-246.3772 505.464,-250.2224 500.1442,-241.0599 495.5915,-246.3772"/>
<text text-anchor="middle" x="399.3637" y="-210.8" font-family="Times,serif" font-size="14.00" fill="#000000">/rest/*</text>
</g>
<!-- wwwd -->
<g id="node11" class="node">
<title>wwwd</title>
<polygon fill="#c0c0c0" stroke="#000000" points="569.5592,-36 566.5592,-40 545.5592,-40 542.5592,-36 480.5592,-36 480.5592,0 569.5592,0 569.5592,-36"/>
<text text-anchor="middle" x="525.0592" y="-14.3" font-family="Times,serif" font-size="14.00" fill="#000000">www&#45;data</text>
</g>
<!-- nginx&#45;&gt;wwwd -->
<g id="edge4" class="edge">
<title>nginx&#45;&gt;wwwd</title>
<path fill="none" stroke="#000000" d="M310.1238,-49.6091C319.6696,-44.1048 331.1898,-38.3501 342.3637,-35 384.0606,-22.4986 433.2994,-18.4997 470.1473,-17.4882"/>
<polygon fill="#000000" stroke="#000000" points="470.2707,-20.9864 480.1951,-17.2775 470.1239,-13.988 470.2707,-20.9864"/>
<text text-anchor="middle" x="399.3637" y="-38.8" font-family="Times,serif" font-size="14.00" fill="#000000">*.css,*.js,*.html</text>
</g>
<!-- projectd -->
<g id="node12" class="node">
<title>projectd</title>
<polygon fill="#c0c0c0" stroke="#000000" points="1324.2161,-145 1321.2161,-149 1300.2161,-149 1297.2161,-145 1220.2161,-145 1220.2161,-109 1324.2161,-109 1324.2161,-145"/>
<text text-anchor="middle" x="1272.2161" y="-123.3" font-family="Times,serif" font-size="14.00" fill="#000000">project&#45;data</text>
</g>
<!-- nginx&#45;&gt;projectd -->
<g id="edge3" class="edge">
<title>nginx&#45;&gt;projectd</title>
<path fill="none" stroke="#000000" d="M324.5218,-64C371.0897,-64 454.0551,-64 525.0592,-64 525.0592,-64 525.0592,-64 1118.8718,-64 1162.0396,-64 1207.261,-85.6248 1237.3123,-103.5355"/>
<polygon fill="#000000" stroke="#000000" points="1235.7785,-106.7007 1246.1325,-108.9467 1239.439,-100.734 1235.7785,-106.7007"/>
<text text-anchor="middle" x="809.896" y="-67.8" font-family="Times,serif" font-size="14.00" fill="#000000">/project&#45;data</text>
</g>
<!-- pocoweb -->
<g id="node3" class="node">
<title>pocoweb</title>
<ellipse fill="none" stroke="#000000" cx="1118.8718" cy="-148" rx="51.9908" ry="18"/>
<text text-anchor="middle" x="1118.8718" y="-144.3" font-family="Times,serif" font-size="14.00" fill="#000000">pocoweb</text>
</g>
<!-- mysql -->
<g id="node4" class="node">
<title>mysql</title>
<ellipse fill="none" stroke="#000000" cx="1272.2161" cy="-308" rx="38.1938" ry="18"/>
<text text-anchor="middle" x="1272.2161" y="-304.3" font-family="Times,serif" font-size="14.00" fill="#000000">mysql</text>
</g>
<!-- pocoweb&#45;&gt;mysql -->
<g id="edge5" class="edge">
<title>pocoweb&#45;&gt;mysql</title>
<path fill="none" stroke="#000000" stroke-dasharray="1,5" d="M1158.2622,-159.9171C1174.1474,-166.6249 1191.2702,-176.619 1202.2161,-191 1221.4112,-216.2189 1203.914,-232.8212 1220.2161,-260 1226.119,-269.8413 1234.6371,-278.8912 1243.076,-286.4171"/>
<polygon fill="#000000" stroke="#000000" points="1240.8286,-289.1002 1250.7266,-292.8792 1245.3455,-283.7526 1240.8286,-289.1002"/>
</g>
<!-- pocoweb&#45;&gt;projectd -->
<g id="edge6" class="edge">
<title>pocoweb&#45;&gt;projectd</title>
<path fill="none" stroke="#000000" d="M1167.3909,-141.3555C1180.8768,-139.5086 1195.7121,-137.477 1209.8715,-135.5379"/>
<polygon fill="#000000" stroke="#000000" points="1210.6006,-138.9708 1220.0332,-134.1463 1209.6508,-132.0355 1210.6006,-138.9708"/>
</g>
<!-- dbd -->
<g id="node14" class="node">
<title>dbd</title>
<polygon fill="#c0c0c0" stroke="#000000" points="1432.2161,-326 1429.2161,-330 1408.2161,-330 1405.2161,-326 1361.2161,-326 1361.2161,-290 1432.2161,-290 1432.2161,-326"/>
<text text-anchor="middle" x="1396.7161" y="-304.3" font-family="Times,serif" font-size="14.00" fill="#000000">db&#45;data</text>
</g>
<!-- mysql&#45;&gt;dbd -->
<g id="edge23" class="edge">
<title>mysql&#45;&gt;dbd</title>
<path fill="none" stroke="#000000" d="M1310.5861,-308C1323.2144,-308 1337.3882,-308 1350.5354,-308"/>
<polygon fill="#000000" stroke="#000000" points="1350.81,-311.5001 1360.81,-308 1350.8099,-304.5001 1350.81,-311.5001"/>
</g>
<!-- pcwauth&#45;&gt;pocoweb -->
<g id="edge7" class="edge">
<title>pcwauth&#45;&gt;pocoweb</title>
<path fill="none" stroke="#000000" d="M568.2803,-257.4636C576.7235,-255.6286 585.5129,-253.7379 593.7548,-252 646.1214,-240.9579 659.2753,-238.493 711.7548,-228 837.3192,-202.8941 984.8107,-174.0794 1063.2291,-158.813"/>
<polygon fill="#000000" stroke="#000000" points="1064.2184,-162.1862 1073.3656,-156.8402 1062.8811,-155.3151 1064.2184,-162.1862"/>
<text text-anchor="middle" x="809.896" y="-231.8" font-family="Times,serif" font-size="14.00" fill="#000000">/books/*</text>
</g>
<!-- pcwauth&#45;&gt;mysql -->
<g id="edge13" class="edge">
<title>pcwauth&#45;&gt;mysql</title>
<path fill="none" stroke="#000000" stroke-dasharray="1,5" d="M561.1091,-279.7909C571.5428,-283.1521 583.016,-286.5251 593.7548,-289 645.3872,-300.8994 658.9998,-301.0579 711.7548,-306 920.4852,-325.554 974.1227,-336.1903 1183.2161,-321 1197.2403,-319.9812 1212.4101,-318.0707 1226.1845,-316.0218"/>
<polygon fill="#000000" stroke="#000000" points="1227.0565,-319.4286 1236.4037,-314.4405 1225.9861,-312.5109 1227.0565,-319.4286"/>
</g>
<!-- pcwusers -->
<g id="node6" class="node">
<title>pcwusers</title>
<ellipse fill="none" stroke="#000000" cx="981.2824" cy="-418" rx="55.4913" ry="18"/>
<text text-anchor="middle" x="981.2824" y="-414.3" font-family="Times,serif" font-size="14.00" fill="#000000">pcwusers</text>
</g>
<!-- pcwauth&#45;&gt;pcwusers -->
<g id="edge8" class="edge">
<title>pcwauth&#45;&gt;pcwusers</title>
<path fill="none" stroke="#000000" d="M529.0144,-284.9776C536.3278,-313.4444 554.9005,-368.2033 593.7548,-393 695.807,-458.1295 845.3644,-444.1901 925.5703,-430.0615"/>
<polygon fill="#000000" stroke="#000000" points="926.2629,-433.4929 935.4717,-428.2537 925.0057,-426.6068 926.2629,-433.4929"/>
<text text-anchor="middle" x="643.7548" y="-434.8" font-family="Times,serif" font-size="14.00" fill="#000000">/users/*</text>
</g>
<!-- pcwprofiler -->
<g id="node7" class="node">
<title>pcwprofiler</title>
<ellipse fill="none" stroke="#000000" cx="1118.8718" cy="-294" rx="64.189" ry="18"/>
<text text-anchor="middle" x="1118.8718" y="-290.3" font-family="Times,serif" font-size="14.00" fill="#000000">pcwprofiler</text>
</g>
<!-- pcwauth&#45;&gt;pcwprofiler -->
<g id="edge10" class="edge">
<title>pcwauth&#45;&gt;pcwprofiler</title>
<path fill="none" stroke="#000000" d="M574.1956,-271.5749C580.7679,-272.1038 587.4226,-272.5971 593.7548,-273 754.1923,-283.2088 942.5398,-289.3129 1044.3746,-292.1264"/>
<polygon fill="#000000" stroke="#000000" points="1044.464,-295.6301 1054.5559,-292.4047 1044.6553,-288.6327 1044.464,-295.6301"/>
<text text-anchor="middle" x="809.896" y="-290.8" font-family="Times,serif" font-size="14.00" fill="#000000">/profile/*</text>
</g>
<!-- pcwpostcorrection -->
<g id="node8" class="node">
<title>pcwpostcorrection</title>
<ellipse fill="none" stroke="#000000" cx="809.896" cy="-115" rx="98.2828" ry="18"/>
<text text-anchor="middle" x="809.896" y="-111.3" font-family="Times,serif" font-size="14.00" fill="#000000">pcwpostcorrection</text>
</g>
<!-- pcwauth&#45;&gt;pcwpostcorrection -->
<g id="edge11" class="edge">
<title>pcwauth&#45;&gt;pcwpostcorrection</title>
<path fill="none" stroke="#000000" d="M529.2403,-248.6487C536.7812,-220.1519 555.5586,-165.8551 593.7548,-140 627.7115,-117.0146 671.733,-109.027 711.1784,-107.4511"/>
<polygon fill="#000000" stroke="#000000" points="711.4626,-110.9449 721.3658,-107.1797 711.276,-103.9474 711.4626,-110.9449"/>
<text text-anchor="middle" x="643.7548" y="-143.8" font-family="Times,serif" font-size="14.00" fill="#000000">/postcorrect/*</text>
</g>
<!-- pcwocr -->
<g id="node9" class="node">
<title>pcwocr</title>
<ellipse fill="none" stroke="#000000" cx="1118.8718" cy="-240" rx="44.6926" ry="18"/>
<text text-anchor="middle" x="1118.8718" y="-236.3" font-family="Times,serif" font-size="14.00" fill="#000000">pcwocr</text>
</g>
<!-- pcwauth&#45;&gt;pcwocr -->
<g id="edge9" class="edge">
<title>pcwauth&#45;&gt;pcwocr</title>
<path fill="none" stroke="#000000" d="M574.9667,-263.7935C612.5609,-261.4427 665.3805,-258.2772 711.7548,-256 837.6854,-249.8161 985.622,-244.4868 1063.8686,-241.82"/>
<polygon fill="#000000" stroke="#000000" points="1064.1027,-245.3141 1073.9782,-241.477 1063.8653,-238.3182 1064.1027,-245.3141"/>
<text text-anchor="middle" x="809.896" y="-259.8" font-family="Times,serif" font-size="14.00" fill="#000000">/ocr/*</text>
</g>
<!-- pcwpkg -->
<g id="node10" class="node">
<title>pcwpkg</title>
<ellipse fill="none" stroke="#000000" cx="981.2824" cy="-377" rx="47.3916" ry="18"/>
<text text-anchor="middle" x="981.2824" y="-373.3" font-family="Times,serif" font-size="14.00" fill="#000000">pcwpkg</text>
</g>
<!-- pcwauth&#45;&gt;pcwpkg -->
<g id="edge12" class="edge">
<title>pcwauth&#45;&gt;pcwpkg</title>
<path fill="none" stroke="#000000" d="M533.4773,-285.1021C544.2174,-305.8599 564.9188,-338.9564 593.7548,-354 649.5504,-383.1084 830.1661,-381.9878 923.8001,-379.2515"/>
<polygon fill="#000000" stroke="#000000" points="924.0651,-382.7451 933.9525,-378.9385 923.8493,-375.7484 924.0651,-382.7451"/>
<text text-anchor="middle" x="643.7548" y="-377.8" font-family="Times,serif" font-size="14.00" fill="#000000">/pkg/*</text>
</g>
<!-- pcwusers&#45;&gt;mysql -->
<g id="edge22" class="edge">
<title>pcwusers&#45;&gt;mysql</title>
<path fill="none" stroke="#000000" stroke-dasharray="1,5" d="M1036.1171,-415.7948C1077.9837,-412.4115 1136.2696,-403.9625 1183.2161,-383 1209.456,-371.2834 1234.009,-349.4379 1250.651,-332.3336"/>
<polygon fill="#000000" stroke="#000000" points="1253.3892,-334.532 1257.7183,-324.862 1248.3038,-329.7218 1253.3892,-334.532"/>
</g>
<!-- pcwprofiler&#45;&gt;mysql -->
<g id="edge15" class="edge">
<title>pcwprofiler&#45;&gt;mysql</title>
<path fill="none" stroke="#000000" stroke-dasharray="1,5" d="M1180.3592,-299.6137C1194.9669,-300.9473 1210.3405,-302.3509 1224.243,-303.6202"/>
<polygon fill="#000000" stroke="#000000" points="1224.2736,-307.1374 1234.5505,-304.5612 1224.9101,-300.1664 1224.2736,-307.1374"/>
</g>
<!-- pcwprofiler&#45;&gt;projectd -->
<g id="edge14" class="edge">
<title>pcwprofiler&#45;&gt;projectd</title>
<path fill="none" stroke="#000000" d="M1161.9131,-280.4053C1169.5118,-276.805 1176.9765,-272.3787 1183.2161,-267 1207.233,-246.2968 1203.2742,-232.803 1220.2161,-206 1231.3635,-188.3643 1244.2554,-168.7734 1254.4139,-153.5127"/>
<polygon fill="#000000" stroke="#000000" points="1257.405,-155.3359 1260.0454,-145.0754 1251.5827,-151.4499 1257.405,-155.3359"/>
</g>
<!-- pcwpostcorrection&#45;&gt;pocoweb -->
<g id="edge17" class="edge">
<title>pcwpostcorrection&#45;&gt;pocoweb</title>
<path fill="none" stroke="#000000" d="M894.7337,-124.061C946.8288,-129.625 1012.2881,-136.6164 1058.9905,-141.6044"/>
<polygon fill="#000000" stroke="#000000" points="1058.6401,-145.0868 1068.9553,-142.6687 1059.3836,-138.1264 1058.6401,-145.0868"/>
</g>
<!-- pcwpostcorrection&#45;&gt;mysql -->
<g id="edge18" class="edge">
<title>pcwpostcorrection&#45;&gt;mysql</title>
<path fill="none" stroke="#000000" stroke-dasharray="1,5" d="M863.9091,-130.095C883.4612,-135.5028 905.7246,-141.5957 926.0373,-147 954.5469,-154.5852 1158.4997,-196.8931 1183.2161,-213 1205.4892,-227.5147 1202.1699,-240.4782 1220.2161,-260 1228.1338,-268.565 1237.3304,-277.3788 1245.7686,-285.0789"/>
<polygon fill="#000000" stroke="#000000" points="1243.4686,-287.7176 1253.2462,-291.7982 1248.1473,-282.5109 1243.4686,-287.7176"/>
</g>
<!-- pcwpostcorrection&#45;&gt;projectd -->
<g id="edge16" class="edge">
<title>pcwpostcorrection&#45;&gt;projectd</title>
<path fill="none" stroke="#000000" d="M908.1874,-115.2064C983.492,-115.6974 1089.9552,-117.1095 1183.2161,-121 1191.8725,-121.3611 1200.9959,-121.8509 1209.9688,-122.396"/>
<polygon fill="#000000" stroke="#000000" points="1209.8015,-125.8923 1220.0026,-123.0309 1210.2436,-118.9063 1209.8015,-125.8923"/>
</g>
<!-- pcwocr&#45;&gt;mysql -->
<g id="edge20" class="edge">
<title>pcwocr&#45;&gt;mysql</title>
<path fill="none" stroke="#000000" stroke-dasharray="1,5" d="M1150.3825,-252.9683C1160.8613,-257.3485 1172.571,-262.3163 1183.2161,-267 1200.6586,-274.6745 1219.8767,-283.4828 1235.977,-290.9632"/>
<polygon fill="#000000" stroke="#000000" points="1234.5168,-294.1441 1245.0593,-295.1955 1237.4735,-287.7992 1234.5168,-294.1441"/>
</g>
<!-- pcwocr&#45;&gt;projectd -->
<g id="edge19" class="edge">
<title>pcwocr&#45;&gt;projectd</title>
<path fill="none" stroke="#000000" d="M1140.5171,-224.0495C1166.215,-205.1126 1209.3439,-173.3308 1239.211,-151.3216"/>
<polygon fill="#000000" stroke="#000000" points="1241.6645,-153.8613 1247.6385,-145.1113 1237.5118,-148.2261 1241.6645,-153.8613"/>
</g>
<!-- ocrd -->
<g id="node13" class="node">
<title>ocrd</title>
<polygon fill="#c0c0c0" stroke="#000000" points="1310.2161,-251 1307.2161,-255 1286.2161,-255 1283.2161,-251 1234.2161,-251 1234.2161,-215 1310.2161,-215 1310.2161,-251"/>
<text text-anchor="middle" x="1272.2161" y="-229.3" font-family="Times,serif" font-size="14.00" fill="#000000">ocr&#45;data</text>
</g>
<!-- pcwocr&#45;&gt;ocrd -->
<g id="edge21" class="edge">
<title>pcwocr&#45;&gt;ocrd</title>
<path fill="none" stroke="#000000" d="M1163.6376,-237.9565C1182.5959,-237.0911 1204.722,-236.081 1224.0359,-235.1994"/>
<polygon fill="#000000" stroke="#000000" points="1224.3123,-238.6905 1234.1422,-234.738 1223.993,-231.6978 1224.3123,-238.6905"/>
</g>
<!-- pcwpkg&#45;&gt;mysql -->
<g id="edge24" class="edge">
<title>pcwpkg&#45;&gt;mysql</title>
<path fill="none" stroke="#000000" stroke-dasharray="1,5" d="M1028.8282,-378.4662C1074.5656,-378.4055 1145.007,-374.4016 1202.2161,-354 1217.6852,-348.4835 1233.1292,-338.8816 1245.5596,-329.8727"/>
<polygon fill="#000000" stroke="#000000" points="1247.7604,-332.5969 1253.6471,-323.7879 1243.5519,-327.0032 1247.7604,-332.5969"/>
</g>
</g>
</svg>
