<?xml version="1.0" encoding="UTF-8" standalone="no"?>
<!DOCTYPE svg PUBLIC "-//W3C//DTD SVG 1.1//EN"
 "http://www.w3.org/Graphics/SVG/1.1/DTD/svg11.dtd">
<!-- Generated by graphviz version 2.40.1 (20161225.0304)
 -->
<!-- Title: ov Pages: 1 -->
<svg width="1191pt" height="434pt"
 viewBox="0.00 0.00 1191.28 434.01" xmlns="http://www.w3.org/2000/svg" xmlns:xlink="http://www.w3.org/1999/xlink">
<g id="graph0" class="graph" transform="scale(1 1) rotate(0) translate(4 430.0142)">
<title>ov</title>
<polygon fill="#ffffff" stroke="transparent" points="-4,4 -4,-430.0142 1187.2784,-430.0142 1187.2784,4 -4,4"/>
<!-- www -->
<g id="node1" class="node">
<title>www</title>
<polygon fill="none" stroke="#000000" points="72.61,-56.5442 72.61,-71.4558 53.7188,-82 27.0026,-82 8.1113,-71.4558 8.1113,-56.5442 27.0026,-46 53.7188,-46 72.61,-56.5442"/>
<polygon fill="none" stroke="#000000" points="76.5962,-54.1919 76.5962,-73.8081 54.7528,-86 25.9685,-86 4.1251,-73.8081 4.1251,-54.1919 25.9685,-42 54.7528,-42 76.5962,-54.1919"/>
<polygon fill="none" stroke="#000000" points="80.5824,-51.8397 80.5824,-76.1603 55.7868,-90 24.9345,-90 .1389,-76.1603 .1389,-51.8397 24.9345,-38 55.7868,-38 80.5824,-51.8397"/>
<text text-anchor="middle" x="40.3607" y="-60.3" font-family="Times,serif" font-size="14.00" fill="#000000">www</text>
</g>
<!-- nginx -->
<g id="node2" class="node">
<title>nginx</title>
<ellipse fill="none" stroke="#000000" cx="244.2686" cy="-64" rx="30.5947" ry="18"/>
<text text-anchor="middle" x="244.2686" y="-60.3" font-family="Times,serif" font-size="14.00" fill="#000000">nginx</text>
</g>
<!-- www&#45;&gt;nginx -->
<g id="edge1" class="edge">
<title>www&#45;&gt;nginx</title>
<path fill="none" stroke="#000000" d="M80.6463,-64C116.2459,-64 167.9135,-64 203.6214,-64"/>
<polygon fill="#000000" stroke="#000000" points="203.6985,-67.5001 213.6984,-64 203.6984,-60.5001 203.6985,-67.5001"/>
<text text-anchor="middle" x="147.2213" y="-67.8" font-family="Times,serif" font-size="14.00" fill="#000000">http://pocoweb....</text>
</g>
<!-- pcwauth -->
<g id="node5" class="node">
<title>pcwauth</title>
<ellipse fill="none" stroke="#000000" cx="442.1123" cy="-253" rx="40.0939" ry="18"/>
<text text-anchor="middle" x="442.1123" y="-249.3" font-family="Times,serif" font-size="14.00" fill="#000000">pcwauth</text>
</g>
<!-- nginx&#45;&gt;pcwauth -->
<g id="edge2" class="edge">
<title>nginx&#45;&gt;pcwauth</title>
<path fill="none" stroke="#000000" d="M260.459,-79.4667C295.052,-112.5133 376.3572,-190.1842 417.436,-229.4267"/>
<polygon fill="#000000" stroke="#000000" points="415.2054,-232.1362 424.8539,-236.5131 420.0407,-227.0746 415.2054,-232.1362"/>
<text text-anchor="middle" x="338.3159" y="-200.8" font-family="Times,serif" font-size="14.00" fill="#000000">/rest/*</text>
</g>
<!-- wwwd -->
<g id="node11" class="node">
<title>wwwd</title>
<polygon fill="#c0c0c0" stroke="#000000" points="478.6123,-36 475.6123,-40 454.6123,-40 451.6123,-36 405.6123,-36 405.6123,0 478.6123,0 478.6123,-36"/>
<text text-anchor="middle" x="442.1123" y="-14.3" font-family="Times,serif" font-size="14.00" fill="#000000">www&#45;data</text>
</g>
<!-- nginx&#45;&gt;wwwd -->
<g id="edge4" class="edge">
<title>nginx&#45;&gt;wwwd</title>
<path fill="none" stroke="#000000" d="M263.6458,-49.8356C272.183,-44.2984 282.5851,-38.4578 292.8159,-35 325.9766,-23.7924 365.3907,-19.6632 395.3928,-18.2712"/>
<polygon fill="#000000" stroke="#000000" points="395.7262,-21.7612 405.5868,-17.8859 395.4617,-14.7662 395.7262,-21.7612"/>
<text text-anchor="middle" x="338.3159" y="-38.8" font-family="Times,serif" font-size="14.00" fill="#000000">*.css,*.js,*.html</text>
</g>
<!-- projectd -->
<g id="node12" class="node">
<title>projectd</title>
<polygon fill="#c0c0c0" stroke="#000000" points="1089.2784,-133 1086.2784,-137 1065.2784,-137 1062.2784,-133 1008.2784,-133 1008.2784,-97 1089.2784,-97 1089.2784,-133"/>
<text text-anchor="middle" x="1048.7784" y="-111.3" font-family="Times,serif" font-size="14.00" fill="#000000">project&#45;data</text>
</g>
<!-- nginx&#45;&gt;projectd -->
<g id="edge3" class="edge">
<title>nginx&#45;&gt;projectd</title>
<path fill="none" stroke="#000000" d="M275.1107,-64C314.0323,-64 383.034,-64 442.1123,-64 442.1123,-64 442.1123,-64 919.283,-64 952.2083,-64 986.7721,-78.4498 1011.9013,-91.9666"/>
<polygon fill="#000000" stroke="#000000" points="1010.273,-95.0659 1020.7121,-96.8757 1013.6801,-88.951 1010.273,-95.0659"/>
<text text-anchor="middle" x="668.802" y="-67.8" font-family="Times,serif" font-size="14.00" fill="#000000">/project&#45;data</text>
</g>
<!-- pocoweb -->
<g id="node3" class="node">
<title>pocoweb</title>
<ellipse fill="none" stroke="#000000" cx="919.283" cy="-149" rx="42.4939" ry="18"/>
<text text-anchor="middle" x="919.283" y="-145.3" font-family="Times,serif" font-size="14.00" fill="#000000">pocoweb</text>
</g>
<!-- mysql -->
<g id="node4" class="node">
<title>mysql</title>
<ellipse fill="none" stroke="#000000" cx="1048.7784" cy="-288" rx="32.4942" ry="18"/>
<text text-anchor="middle" x="1048.7784" y="-284.3" font-family="Times,serif" font-size="14.00" fill="#000000">mysql</text>
</g>
<!-- pocoweb&#45;&gt;mysql -->
<g id="edge5" class="edge">
<title>pocoweb&#45;&gt;mysql</title>
<path fill="none" stroke="#000000" stroke-dasharray="1,5" d="M950.3326,-161.5365C963.724,-168.0183 978.8911,-176.916 990.2784,-188 1011.6514,-208.8039 1027.8925,-239.0598 1037.7755,-260.8371"/>
<polygon fill="#000000" stroke="#000000" points="1034.6493,-262.4236 1041.8646,-270.1818 1041.0622,-259.6174 1034.6493,-262.4236"/>
</g>
<!-- pocoweb&#45;&gt;projectd -->
<g id="edge6" class="edge">
<title>pocoweb&#45;&gt;projectd</title>
<path fill="none" stroke="#000000" d="M955.3547,-139.5291C968.6102,-136.0488 983.8752,-132.0408 998.173,-128.2868"/>
<polygon fill="#000000" stroke="#000000" points="999.0969,-131.663 1007.8803,-125.7381 997.3192,-124.8924 999.0969,-131.663"/>
</g>
<!-- dbd -->
<g id="node13" class="node">
<title>dbd</title>
<polygon fill="#c0c0c0" stroke="#000000" points="1183.2784,-306 1180.2784,-310 1159.2784,-310 1156.2784,-306 1126.2784,-306 1126.2784,-270 1183.2784,-270 1183.2784,-306"/>
<text text-anchor="middle" x="1154.7784" y="-284.3" font-family="Times,serif" font-size="14.00" fill="#000000">db&#45;data</text>
</g>
<!-- mysql&#45;&gt;dbd -->
<g id="edge20" class="edge">
<title>mysql&#45;&gt;dbd</title>
<path fill="none" stroke="#000000" d="M1081.4468,-288C1092.345,-288 1104.5951,-288 1115.9165,-288"/>
<polygon fill="#000000" stroke="#000000" points="1115.9874,-291.5001 1125.9873,-288 1115.9873,-284.5001 1115.9874,-291.5001"/>
</g>
<!-- pcwauth&#45;&gt;pocoweb -->
<g id="edge7" class="edge">
<title>pcwauth&#45;&gt;pocoweb</title>
<path fill="none" stroke="#000000" d="M452.4824,-235.4978C462.8954,-219.1388 480.2556,-194.9113 500.4087,-179 536.1497,-150.7818 548.9346,-145.7841 593.4087,-136 690.0534,-114.7387 806.622,-128.5665 870.8668,-139.4822"/>
<polygon fill="#000000" stroke="#000000" points="870.6439,-142.9963 881.0974,-141.2716 871.85,-136.101 870.6439,-142.9963"/>
<text text-anchor="middle" x="668.802" y="-139.8" font-family="Times,serif" font-size="14.00" fill="#000000">/books/*</text>
</g>
<!-- pcwauth&#45;&gt;mysql -->
<g id="edge13" class="edge">
<title>pcwauth&#45;&gt;mysql</title>
<path fill="none" stroke="#000000" stroke-dasharray="1,5" d="M444.9012,-271.3764C450.2126,-299.296 464.6273,-351.7137 500.4087,-376 628.8234,-463.1601 695.7664,-413.7695 849.2876,-391 905.3317,-382.6878 921.556,-381.1607 971.2784,-354 991.8239,-342.7771 1011.8581,-325.4967 1026.4088,-311.4329"/>
<polygon fill="#000000" stroke="#000000" points="1029.2593,-313.5354 1033.8968,-304.0094 1024.331,-308.5642 1029.2593,-313.5354"/>
</g>
<!-- pcwusers -->
<g id="node6" class="node">
<title>pcwusers</title>
<ellipse fill="none" stroke="#000000" cx="805.7415" cy="-367" rx="43.5923" ry="18"/>
<text text-anchor="middle" x="805.7415" y="-363.3" font-family="Times,serif" font-size="14.00" fill="#000000">pcwusers</text>
</g>
<!-- pcwauth&#45;&gt;pcwusers -->
<g id="edge8" class="edge">
<title>pcwauth&#45;&gt;pcwusers</title>
<path fill="none" stroke="#000000" d="M450.4647,-270.8C459.8968,-288.7332 477.0324,-315.6112 500.4087,-329 579.6646,-374.3939 689.2556,-376.1022 753.3053,-372.2303"/>
<polygon fill="#000000" stroke="#000000" points="753.824,-375.7033 763.5658,-371.5383 753.3529,-368.7192 753.824,-375.7033"/>
<text text-anchor="middle" x="537.9087" y="-360.8" font-family="Times,serif" font-size="14.00" fill="#000000">/users/*</text>
</g>
<!-- pcwprofiler -->
<g id="node7" class="node">
<title>pcwprofiler</title>
<ellipse fill="none" stroke="#000000" cx="919.283" cy="-242" rx="51.9908" ry="18"/>
<text text-anchor="middle" x="919.283" y="-238.3" font-family="Times,serif" font-size="14.00" fill="#000000">pcwprofiler</text>
</g>
<!-- pcwauth&#45;&gt;pcwprofiler -->
<g id="edge9" class="edge">
<title>pcwauth&#45;&gt;pcwprofiler</title>
<path fill="none" stroke="#000000" d="M481.5628,-249.011C512.064,-246.1355 555.3639,-242.5064 593.4087,-241 685.1684,-237.3668 791.5751,-238.7428 857.1659,-240.2366"/>
<polygon fill="#000000" stroke="#000000" points="857.2541,-243.7395 867.3339,-240.4766 857.4193,-236.7415 857.2541,-243.7395"/>
<text text-anchor="middle" x="668.802" y="-244.8" font-family="Times,serif" font-size="14.00" fill="#000000">/profile/*</text>
</g>
<!-- pcwpostcorrection -->
<g id="node8" class="node">
<title>pcwpostcorrection</title>
<ellipse fill="none" stroke="#000000" cx="668.802" cy="-178" rx="75.2868" ry="18"/>
<text text-anchor="middle" x="668.802" y="-174.3" font-family="Times,serif" font-size="14.00" fill="#000000">pcwpostcorrection</text>
</g>
<!-- pcwauth&#45;&gt;pcwpostcorrection -->
<g id="edge10" class="edge">
<title>pcwauth&#45;&gt;pcwpostcorrection</title>
<path fill="none" stroke="#000000" d="M457.1822,-235.7933C468.0369,-224.5724 483.6694,-210.6398 500.4087,-203 526.1513,-191.2511 556.1921,-184.7935 583.7155,-181.3126"/>
<polygon fill="#000000" stroke="#000000" points="584.1947,-184.7806 593.7292,-180.1606 583.3946,-177.8265 584.1947,-184.7806"/>
<text text-anchor="middle" x="537.9087" y="-206.8" font-family="Times,serif" font-size="14.00" fill="#000000">/postcorrect/*</text>
</g>
<!-- pcwpkg -->
<g id="node9" class="node">
<title>pcwpkg</title>
<ellipse fill="none" stroke="#000000" cx="805.7415" cy="-326" rx="38.1938" ry="18"/>
<text text-anchor="middle" x="805.7415" y="-322.3" font-family="Times,serif" font-size="14.00" fill="#000000">pcwpkg</text>
</g>
<!-- pcwauth&#45;&gt;pcwpkg -->
<g id="edge11" class="edge">
<title>pcwauth&#45;&gt;pcwpkg</title>
<path fill="none" stroke="#000000" d="M463.9676,-268.3225C474.5665,-275.1681 487.7252,-282.8383 500.4087,-288 586.0015,-322.833 695.3424,-327.9414 757.2508,-327.592"/>
<polygon fill="#000000" stroke="#000000" points="757.5436,-331.0891 767.5052,-327.4812 757.4679,-324.0895 757.5436,-331.0891"/>
<text text-anchor="middle" x="537.9087" y="-313.8" font-family="Times,serif" font-size="14.00" fill="#000000">/pkg/*</text>
</g>
<!-- pcwpool -->
<g id="node10" class="node">
<title>pcwpool</title>
<ellipse fill="none" stroke="#000000" cx="668.802" cy="-283" rx="40.8928" ry="18"/>
<text text-anchor="middle" x="668.802" y="-279.3" font-family="Times,serif" font-size="14.00" fill="#000000">pcwpool</text>
</g>
<!-- pcwauth&#45;&gt;pcwpool -->
<g id="edge12" class="edge">
<title>pcwauth&#45;&gt;pcwpool</title>
<path fill="none" stroke="#000000" d="M480.8241,-258.1231C519.1421,-263.1941 577.9459,-270.9761 619.5662,-276.4841"/>
<polygon fill="#000000" stroke="#000000" points="619.1169,-279.9551 629.4897,-277.7974 620.0353,-273.0156 619.1169,-279.9551"/>
<text text-anchor="middle" x="537.9087" y="-272.8" font-family="Times,serif" font-size="14.00" fill="#000000">/pool/*</text>
</g>
<!-- pcwusers&#45;&gt;mysql -->
<g id="edge19" class="edge">
<title>pcwusers&#45;&gt;mysql</title>
<path fill="none" stroke="#000000" stroke-dasharray="1,5" d="M845.5793,-359.6202C879.558,-352.7407 929.4106,-341.2514 971.2784,-326 986.6081,-320.4158 1002.9164,-312.7082 1016.598,-305.6934"/>
<polygon fill="#000000" stroke="#000000" points="1018.3668,-308.7182 1025.606,-300.9823 1015.1227,-302.5153 1018.3668,-308.7182"/>
</g>
<!-- pcwprofiler&#45;&gt;mysql -->
<g id="edge15" class="edge">
<title>pcwprofiler&#45;&gt;mysql</title>
<path fill="none" stroke="#000000" stroke-dasharray="1,5" d="M955.6993,-254.936C973.0839,-261.1114 993.8628,-268.4926 1011.3733,-274.7128"/>
<polygon fill="#000000" stroke="#000000" points="1010.6604,-278.1737 1021.2551,-278.223 1013.0036,-271.5775 1010.6604,-278.1737"/>
</g>
<!-- pcwprofiler&#45;&gt;projectd -->
<g id="edge14" class="edge">
<title>pcwprofiler&#45;&gt;projectd</title>
<path fill="none" stroke="#000000" d="M936.7473,-224.8722C958.9906,-203.0576 997.6037,-165.1886 1023.1755,-140.1095"/>
<polygon fill="#000000" stroke="#000000" points="1025.6499,-142.5851 1030.3388,-133.0843 1020.7485,-137.5874 1025.6499,-142.5851"/>
</g>
<!-- pcwpostcorrection&#45;&gt;pocoweb -->
<g id="edge17" class="edge">
<title>pcwpostcorrection&#45;&gt;pocoweb</title>
<path fill="none" stroke="#000000" d="M736.9162,-170.1139C778.2307,-165.3306 830.1008,-159.3253 867.9493,-154.9433"/>
<polygon fill="#000000" stroke="#000000" points="868.7012,-158.3797 878.2323,-153.7527 867.8961,-151.4261 868.7012,-158.3797"/>
</g>
<!-- pcwpostcorrection&#45;&gt;mysql -->
<g id="edge18" class="edge">
<title>pcwpostcorrection&#45;&gt;mysql</title>
<path fill="none" stroke="#000000" stroke-dasharray="1,5" d="M742.7016,-181.7629C818.9128,-186.5732 932.003,-196.5764 971.2784,-215 994.7194,-225.9959 1015.7115,-246.8149 1029.9162,-263.4149"/>
<polygon fill="#000000" stroke="#000000" points="1027.2547,-265.6885 1036.3253,-271.1635 1032.6487,-261.227 1027.2547,-265.6885"/>
</g>
<!-- pcwpostcorrection&#45;&gt;projectd -->
<g id="edge16" class="edge">
<title>pcwpostcorrection&#45;&gt;projectd</title>
<path fill="none" stroke="#000000" d="M710.7453,-163.0329C750.4808,-149.6079 812.1175,-130.7206 867.2876,-122 910.9425,-115.0996 961.2001,-113.657 997.7436,-113.7642"/>
<polygon fill="#000000" stroke="#000000" points="998.1206,-117.2668 1008.145,-113.8375 998.17,-110.267 998.1206,-117.2668"/>
</g>
<!-- pcwpkg&#45;&gt;mysql -->
<g id="edge21" class="edge">
<title>pcwpkg&#45;&gt;mysql</title>
<path fill="none" stroke="#000000" stroke-dasharray="1,5" d="M843.3867,-322.2812C880.8077,-318.3084 939.759,-311.3034 990.2784,-302 996.4791,-300.8581 1003.0089,-299.4761 1009.3676,-298.0308"/>
<polygon fill="#000000" stroke="#000000" points="1010.2129,-301.4276 1019.1472,-295.7329 1008.6117,-294.6132 1010.2129,-301.4276"/>
</g>
<!-- pcwpool&#45;&gt;mysql -->
<g id="edge22" class="edge">
<title>pcwpool&#45;&gt;mysql</title>
<path fill="none" stroke="#000000" stroke-dasharray="1,5" d="M709.8272,-283.5398C782.258,-284.4929 932.0984,-286.4646 1005.8567,-287.4352"/>
<polygon fill="#000000" stroke="#000000" points="1006.1235,-290.9389 1016.1687,-287.5709 1006.2157,-283.9395 1006.1235,-290.9389"/>
</g>
</g>
</svg>
