<?xml version="1.0" encoding="UTF-8" standalone="no"?>
<!DOCTYPE svg PUBLIC "-//W3C//DTD SVG 1.1//EN"
 "http://www.w3.org/Graphics/SVG/1.1/DTD/svg11.dtd">
<!-- Generated by graphviz version 2.40.1 (0)
 -->
<!-- Title: ov Pages: 1 -->
<svg width="1154pt" height="434pt"
 viewBox="0.00 0.00 1154.14 434.18" xmlns="http://www.w3.org/2000/svg" xmlns:xlink="http://www.w3.org/1999/xlink">
<g id="graph0" class="graph" transform="scale(1 1) rotate(0) translate(4 430.1838)">
<title>ov</title>
<polygon fill="#ffffff" stroke="transparent" points="-4,4 -4,-430.1838 1150.1377,-430.1838 1150.1377,4 -4,4"/>
<!-- www -->
<g id="node1" class="node">
<title>www</title>
<polygon fill="none" stroke="#000000" points="82.3941,-56.5442 82.3941,-71.4558 60.6562,-82 29.914,-82 8.1761,-71.4558 8.1761,-56.5442 29.914,-46 60.6562,-46 82.3941,-56.5442"/>
<polygon fill="none" stroke="#000000" points="86.3752,-54.0335 86.3752,-73.9665 61.5668,-86 29.0034,-86 4.195,-73.9665 4.195,-54.0335 29.0034,-42 61.5668,-42 86.3752,-54.0335"/>
<polygon fill="none" stroke="#000000" points="90.3563,-51.5228 90.3563,-76.4772 62.4775,-90 28.0927,-90 .2139,-76.4772 .2139,-51.5228 28.0927,-38 62.4775,-38 90.3563,-51.5228"/>
<text text-anchor="middle" x="45.2851" y="-60.3" font-family="Times,serif" font-size="14.00" fill="#000000">www</text>
</g>
<!-- nginx -->
<g id="node2" class="node">
<title>nginx</title>
<ellipse fill="none" stroke="#000000" cx="286.967" cy="-64" rx="36.2938" ry="18"/>
<text text-anchor="middle" x="286.967" y="-60.3" font-family="Times,serif" font-size="14.00" fill="#000000">nginx</text>
</g>
<!-- www&#45;&gt;nginx -->
<g id="edge1" class="edge">
<title>www&#45;&gt;nginx</title>
<path fill="none" stroke="#000000" d="M90.4601,-64C133.1215,-64 196.8363,-64 240.0571,-64"/>
<polygon fill="#000000" stroke="#000000" points="240.3069,-67.5001 250.3069,-64 240.3068,-60.5001 240.3069,-67.5001"/>
<text text-anchor="middle" x="170.5702" y="-67.8" font-family="Times,serif" font-size="14.00" fill="#000000">http://pocoweb....</text>
</g>
<!-- pcwauth -->
<g id="node5" class="node">
<title>pcwauth</title>
<ellipse fill="none" stroke="#000000" cx="520.4093" cy="-241" rx="50.0912" ry="18"/>
<text text-anchor="middle" x="520.4093" y="-237.3" font-family="Times,serif" font-size="14.00" fill="#000000">pcwauth</text>
</g>
<!-- nginx&#45;&gt;pcwauth -->
<g id="edge2" class="edge">
<title>nginx&#45;&gt;pcwauth</title>
<path fill="none" stroke="#000000" d="M306.8701,-79.0909C347.9558,-110.2428 442.3444,-181.8098 490.6875,-218.4644"/>
<polygon fill="#000000" stroke="#000000" points="488.7927,-221.42 498.8758,-224.6729 493.022,-215.8421 488.7927,-221.42"/>
<text text-anchor="middle" x="396.8637" y="-191.8" font-family="Times,serif" font-size="14.00" fill="#000000">/rest/*</text>
</g>
<!-- wwwd -->
<g id="node11" class="node">
<title>wwwd</title>
<polygon fill="#c0c0c0" stroke="#000000" points="564.9093,-36 561.9093,-40 540.9093,-40 537.9093,-36 475.9093,-36 475.9093,0 564.9093,0 564.9093,-36"/>
<text text-anchor="middle" x="520.4093" y="-14.3" font-family="Times,serif" font-size="14.00" fill="#000000">www&#45;data</text>
</g>
<!-- nginx&#45;&gt;wwwd -->
<g id="edge4" class="edge">
<title>nginx&#45;&gt;wwwd</title>
<path fill="none" stroke="#000000" d="M309.1269,-49.6195C318.6733,-44.1169 330.193,-38.3606 341.3637,-35 381.7765,-22.8422 429.4243,-18.7835 465.4027,-17.6607"/>
<polygon fill="#000000" stroke="#000000" points="465.7864,-21.1525 475.6979,-17.4091 465.6153,-14.1546 465.7864,-21.1525"/>
<text text-anchor="middle" x="396.8637" y="-38.8" font-family="Times,serif" font-size="14.00" fill="#000000">*.css,*.js,*.html</text>
</g>
<!-- projectd -->
<g id="node12" class="node">
<title>projectd</title>
<polygon fill="#c0c0c0" stroke="#000000" points="1038.1377,-159 1035.1377,-163 1014.1377,-163 1011.1377,-159 935.1377,-159 935.1377,-123 1038.1377,-123 1038.1377,-159"/>
<text text-anchor="middle" x="986.6377" y="-137.3" font-family="Times,serif" font-size="14.00" fill="#000000">project&#45;data</text>
</g>
<!-- nginx&#45;&gt;projectd -->
<g id="edge3" class="edge">
<title>nginx&#45;&gt;projectd</title>
<path fill="none" stroke="#000000" d="M323.3742,-62.5635C437.993,-58.4417 790.1922,-48.9441 898.1377,-83 920.0679,-89.9188 941.7119,-103.9393 958.1059,-116.462"/>
<polygon fill="#000000" stroke="#000000" points="956.1556,-119.3815 966.1741,-122.8285 960.4918,-113.8862 956.1556,-119.3815"/>
<text text-anchor="middle" x="637.4549" y="-62.8" font-family="Times,serif" font-size="14.00" fill="#000000">/project&#45;data</text>
</g>
<!-- pocoweb -->
<g id="node3" class="node">
<title>pocoweb</title>
<ellipse fill="none" stroke="#000000" cx="801.2963" cy="-272" rx="51.1914" ry="18"/>
<text text-anchor="middle" x="801.2963" y="-268.3" font-family="Times,serif" font-size="14.00" fill="#000000">pocoweb</text>
</g>
<!-- mysql -->
<g id="node4" class="node">
<title>mysql</title>
<ellipse fill="none" stroke="#000000" cx="986.6377" cy="-291" rx="38.1938" ry="18"/>
<text text-anchor="middle" x="986.6377" y="-287.3" font-family="Times,serif" font-size="14.00" fill="#000000">mysql</text>
</g>
<!-- pocoweb&#45;&gt;mysql -->
<g id="edge5" class="edge">
<title>pocoweb&#45;&gt;mysql</title>
<path fill="none" stroke="#000000" stroke-dasharray="1,5" d="M850.9644,-277.0917C878.2525,-279.889 911.9325,-283.3417 938.9086,-286.1071"/>
<polygon fill="#000000" stroke="#000000" points="938.5871,-289.5924 948.892,-287.1306 939.301,-282.6289 938.5871,-289.5924"/>
</g>
<!-- pocoweb&#45;&gt;projectd -->
<g id="edge6" class="edge">
<title>pocoweb&#45;&gt;projectd</title>
<path fill="none" stroke="#000000" d="M848.4758,-264.7347C865.0782,-260.7011 883.285,-254.4954 898.1377,-245 928.9568,-225.2971 954.7735,-191.5671 970.4231,-167.8748"/>
<polygon fill="#000000" stroke="#000000" points="973.4487,-169.6406 975.9123,-159.3362 967.5605,-165.8552 973.4487,-169.6406"/>
</g>
<!-- dbd -->
<g id="node14" class="node">
<title>dbd</title>
<polygon fill="#c0c0c0" stroke="#000000" points="1146.1377,-309 1143.1377,-313 1122.1377,-313 1119.1377,-309 1075.1377,-309 1075.1377,-273 1146.1377,-273 1146.1377,-309"/>
<text text-anchor="middle" x="1110.6377" y="-287.3" font-family="Times,serif" font-size="14.00" fill="#000000">db&#45;data</text>
</g>
<!-- mysql&#45;&gt;dbd -->
<g id="edge22" class="edge">
<title>mysql&#45;&gt;dbd</title>
<path fill="none" stroke="#000000" d="M1025.1923,-291C1037.7583,-291 1051.8312,-291 1064.873,-291"/>
<polygon fill="#000000" stroke="#000000" points="1065.0628,-294.5001 1075.0627,-291 1065.0627,-287.5001 1065.0628,-294.5001"/>
</g>
<!-- pcwauth&#45;&gt;pocoweb -->
<g id="edge7" class="edge">
<title>pcwauth&#45;&gt;pocoweb</title>
<path fill="none" stroke="#000000" d="M568.3763,-246.2939C616.4113,-251.5952 690.4274,-259.764 742.0911,-265.4658"/>
<polygon fill="#000000" stroke="#000000" points="741.7879,-268.9535 752.1115,-266.5717 742.5559,-261.9958 741.7879,-268.9535"/>
<text text-anchor="middle" x="637.4549" y="-262.8" font-family="Times,serif" font-size="14.00" fill="#000000">/books/*</text>
</g>
<!-- pcwauth&#45;&gt;mysql -->
<g id="edge13" class="edge">
<title>pcwauth&#45;&gt;mysql</title>
<path fill="none" stroke="#000000" stroke-dasharray="1,5" d="M523.8692,-259.3575C530.6149,-289.8205 548.5116,-350.5675 588.4549,-382 629.9002,-414.6146 652.0123,-401.413 704.4549,-407 790.0517,-416.1191 820.9866,-445.1798 898.1377,-407 935.3021,-388.6084 961.1243,-346.3059 974.9134,-318.1923"/>
<polygon fill="#000000" stroke="#000000" points="978.1942,-319.4407 979.2878,-308.9024 971.8611,-316.4585 978.1942,-319.4407"/>
</g>
<!-- pcwusers -->
<g id="node6" class="node">
<title>pcwusers</title>
<ellipse fill="none" stroke="#000000" cx="801.2963" cy="-380" rx="54.6905" ry="18"/>
<text text-anchor="middle" x="801.2963" y="-376.3" font-family="Times,serif" font-size="14.00" fill="#000000">pcwusers</text>
</g>
<!-- pcwauth&#45;&gt;pcwusers -->
<g id="edge8" class="edge">
<title>pcwauth&#45;&gt;pcwusers</title>
<path fill="none" stroke="#000000" d="M530.217,-258.9477C541.6692,-278.1982 562.4074,-308.2525 588.4549,-325 633.5753,-354.0108 693.3085,-367.7448 738.0079,-374.2321"/>
<polygon fill="#000000" stroke="#000000" points="737.784,-377.734 748.1657,-375.62 738.7316,-370.7984 737.784,-377.734"/>
<text text-anchor="middle" x="637.4549" y="-366.8" font-family="Times,serif" font-size="14.00" fill="#000000">/users/*</text>
</g>
<!-- pcwprofiler -->
<g id="node7" class="node">
<title>pcwprofiler</title>
<ellipse fill="none" stroke="#000000" cx="801.2963" cy="-164" rx="63.8893" ry="18"/>
<text text-anchor="middle" x="801.2963" y="-160.3" font-family="Times,serif" font-size="14.00" fill="#000000">pcwprofiler</text>
</g>
<!-- pcwauth&#45;&gt;pcwprofiler -->
<g id="edge10" class="edge">
<title>pcwauth&#45;&gt;pcwprofiler</title>
<path fill="none" stroke="#000000" d="M545.0618,-225.1616C557.6159,-217.7373 573.3792,-209.3651 588.4549,-204 634.6934,-187.5448 689.1166,-177.4707 731.3556,-171.5485"/>
<polygon fill="#000000" stroke="#000000" points="731.8305,-175.0162 741.2689,-170.2031 730.8891,-168.0798 731.8305,-175.0162"/>
<text text-anchor="middle" x="637.4549" y="-207.8" font-family="Times,serif" font-size="14.00" fill="#000000">/profile/*</text>
</g>
<!-- pcwpostcorrection -->
<g id="node8" class="node">
<title>pcwpostcorrection</title>
<ellipse fill="none" stroke="#000000" cx="801.2963" cy="-218" rx="96.6831" ry="18"/>
<text text-anchor="middle" x="801.2963" y="-214.3" font-family="Times,serif" font-size="14.00" fill="#000000">pcwpostcorrection</text>
</g>
<!-- pcwauth&#45;&gt;pcwpostcorrection -->
<g id="edge11" class="edge">
<title>pcwauth&#45;&gt;pcwpostcorrection</title>
<path fill="none" stroke="#000000" d="M566.4622,-233.6916C573.8055,-232.6823 581.329,-231.7399 588.4549,-231 623.6448,-227.3462 662.2226,-224.6088 696.7548,-222.6127"/>
<polygon fill="#000000" stroke="#000000" points="697.0686,-226.1006 706.8557,-222.043 696.6744,-219.1117 697.0686,-226.1006"/>
<text text-anchor="middle" x="637.4549" y="-234.8" font-family="Times,serif" font-size="14.00" fill="#000000">/postcorrect/*</text>
</g>
<!-- pcwocr -->
<g id="node9" class="node">
<title>pcwocr</title>
<ellipse fill="none" stroke="#000000" cx="801.2963" cy="-110" rx="44.393" ry="18"/>
<text text-anchor="middle" x="801.2963" y="-106.3" font-family="Times,serif" font-size="14.00" fill="#000000">pcwocr</text>
</g>
<!-- pcwauth&#45;&gt;pcwocr -->
<g id="edge9" class="edge">
<title>pcwauth&#45;&gt;pcwocr</title>
<path fill="none" stroke="#000000" d="M530.4495,-223.007C541.9639,-204.0915 562.6252,-174.9147 588.4549,-159 636.8234,-129.1981 701.4815,-117.496 746.7934,-112.9156"/>
<polygon fill="#000000" stroke="#000000" points="747.3783,-116.3765 757.0131,-111.9696 746.733,-109.4063 747.3783,-116.3765"/>
<text text-anchor="middle" x="637.4549" y="-162.8" font-family="Times,serif" font-size="14.00" fill="#000000">/ocr/*</text>
</g>
<!-- pcwpkg -->
<g id="node10" class="node">
<title>pcwpkg</title>
<ellipse fill="none" stroke="#000000" cx="801.2963" cy="-326" rx="46.2923" ry="18"/>
<text text-anchor="middle" x="801.2963" y="-322.3" font-family="Times,serif" font-size="14.00" fill="#000000">pcwpkg</text>
</g>
<!-- pcwauth&#45;&gt;pcwpkg -->
<g id="edge12" class="edge">
<title>pcwauth&#45;&gt;pcwpkg</title>
<path fill="none" stroke="#000000" d="M545.4647,-256.7917C557.9868,-264.1137 573.6042,-272.4115 588.4549,-278 640.9689,-297.7617 703.9701,-310.7247 747.7412,-318.1406"/>
<polygon fill="#000000" stroke="#000000" points="747.4452,-321.6391 757.8823,-319.8178 748.5875,-314.7329 747.4452,-321.6391"/>
<text text-anchor="middle" x="637.4549" y="-309.8" font-family="Times,serif" font-size="14.00" fill="#000000">/pkg/*</text>
</g>
<!-- pcwusers&#45;&gt;mysql -->
<g id="edge21" class="edge">
<title>pcwusers&#45;&gt;mysql</title>
<path fill="none" stroke="#000000" stroke-dasharray="1,5" d="M847.7721,-370.4494C864.1286,-366.2094 882.3574,-360.4581 898.1377,-353 920.3804,-342.4877 943.0587,-326.4757 959.8894,-313.3572"/>
<polygon fill="#000000" stroke="#000000" points="962.4781,-315.7702 968.1245,-306.8053 958.1199,-310.2924 962.4781,-315.7702"/>
</g>
<!-- pcwprofiler&#45;&gt;mysql -->
<g id="edge15" class="edge">
<title>pcwprofiler&#45;&gt;mysql</title>
<path fill="none" stroke="#000000" stroke-dasharray="1,5" d="M855.8598,-173.3727C870.3088,-177.3783 885.413,-183.0379 898.1377,-191 928.327,-209.89 954.1508,-242.115 969.9786,-264.8708"/>
<polygon fill="#000000" stroke="#000000" points="967.2349,-267.0613 975.7401,-273.379 973.031,-263.1363 967.2349,-267.0613"/>
</g>
<!-- pcwprofiler&#45;&gt;projectd -->
<g id="edge14" class="edge">
<title>pcwprofiler&#45;&gt;projectd</title>
<path fill="none" stroke="#000000" d="M859.6851,-156.7542C880.4756,-154.1742 903.9459,-151.2617 925.0001,-148.6489"/>
<polygon fill="#000000" stroke="#000000" points="925.6266,-152.0981 935.1194,-147.3932 924.7645,-145.1514 925.6266,-152.0981"/>
</g>
<!-- pcwpostcorrection&#45;&gt;mysql -->
<g id="edge17" class="edge">
<title>pcwpostcorrection&#45;&gt;mysql</title>
<path fill="none" stroke="#000000" stroke-dasharray="1,5" d="M860.3214,-232.3516C872.9614,-236.0068 886.1222,-240.2618 898.1377,-245 916.9901,-252.4343 937.1011,-262.6849 953.3801,-271.6231"/>
<polygon fill="#000000" stroke="#000000" points="952.0457,-274.8865 962.4836,-276.7029 955.4566,-268.7737 952.0457,-274.8865"/>
</g>
<!-- pcwpostcorrection&#45;&gt;projectd -->
<g id="edge16" class="edge">
<title>pcwpostcorrection&#45;&gt;projectd</title>
<path fill="none" stroke="#000000" d="M860.962,-203.8161C873.4362,-200.173 886.368,-195.8804 898.1377,-191 915.8526,-183.6543 934.4752,-173.5351 950.0427,-164.3208"/>
<polygon fill="#000000" stroke="#000000" points="952.0672,-167.1872 958.8256,-159.0279 948.4541,-161.1917 952.0672,-167.1872"/>
</g>
<!-- pcwocr&#45;&gt;mysql -->
<g id="edge19" class="edge">
<title>pcwocr&#45;&gt;mysql</title>
<path fill="none" stroke="#000000" stroke-dasharray="1,5" d="M844.096,-114.6331C862.2356,-118.3387 882.7012,-125.006 898.1377,-137 940.3571,-169.8042 965.9836,-228.8148 978.1268,-263.4857"/>
<polygon fill="#000000" stroke="#000000" points="974.8206,-264.6349 981.3317,-272.9929 981.4539,-262.3988 974.8206,-264.6349"/>
</g>
<!-- pcwocr&#45;&gt;projectd -->
<g id="edge18" class="edge">
<title>pcwocr&#45;&gt;projectd</title>
<path fill="none" stroke="#000000" d="M842.4295,-116.8799C866.6383,-120.929 897.7274,-126.129 924.8372,-130.6633"/>
<polygon fill="#000000" stroke="#000000" points="924.5694,-134.1671 935.0098,-132.3648 925.7242,-127.263 924.5694,-134.1671"/>
</g>
<!-- ocrd -->
<g id="node13" class="node">
<title>ocrd</title>
<polygon fill="#c0c0c0" stroke="#000000" points="1024.1377,-57 1021.1377,-61 1000.1377,-61 997.1377,-57 949.1377,-57 949.1377,-21 1024.1377,-21 1024.1377,-57"/>
<text text-anchor="middle" x="986.6377" y="-35.3" font-family="Times,serif" font-size="14.00" fill="#000000">ocr&#45;data</text>
</g>
<!-- pcwocr&#45;&gt;ocrd -->
<g id="edge20" class="edge">
<title>pcwocr&#45;&gt;ocrd</title>
<path fill="none" stroke="#000000" d="M833.5803,-97.6327C862.843,-86.4229 906.3344,-69.7623 939.486,-57.0627"/>
<polygon fill="#000000" stroke="#000000" points="940.8913,-60.2725 948.9775,-53.4267 938.3872,-53.7357 940.8913,-60.2725"/>
</g>
<!-- pcwpkg&#45;&gt;mysql -->
<g id="edge23" class="edge">
<title>pcwpkg&#45;&gt;mysql</title>
<path fill="none" stroke="#000000" stroke-dasharray="1,5" d="M842.8905,-318.1453C871.9139,-312.6645 910.6576,-305.3481 940.6088,-299.6921"/>
<polygon fill="#000000" stroke="#000000" points="941.6291,-303.0614 950.8059,-297.7665 940.3301,-296.183 941.6291,-303.0614"/>
</g>
</g>
</svg>
