<?xml version="1.0" encoding="UTF-8" standalone="no"?>
<!DOCTYPE svg PUBLIC "-//W3C//DTD SVG 1.1//EN"
 "http://www.w3.org/Graphics/SVG/1.1/DTD/svg11.dtd">
<!-- Generated by graphviz version 2.40.1 (20161225.0304)
 -->
<!-- Title: ov Pages: 1 -->
<svg width="1202pt" height="429pt"
 viewBox="0.00 0.00 1202.28 429.13" xmlns="http://www.w3.org/2000/svg" xmlns:xlink="http://www.w3.org/1999/xlink">
<g id="graph0" class="graph" transform="scale(1 1) rotate(0) translate(4 425.1328)">
<title>ov</title>
<polygon fill="#ffffff" stroke="transparent" points="-4,4 -4,-425.1328 1198.2784,-425.1328 1198.2784,4 -4,4"/>
<!-- www -->
<g id="node1" class="node">
<title>www</title>
<polygon fill="none" stroke="#000000" points="72.61,-56.5442 72.61,-71.4558 53.7188,-82 27.0026,-82 8.1113,-71.4558 8.1113,-56.5442 27.0026,-46 53.7188,-46 72.61,-56.5442"/>
<polygon fill="none" stroke="#000000" points="76.5962,-54.1919 76.5962,-73.8081 54.7528,-86 25.9685,-86 4.1251,-73.8081 4.1251,-54.1919 25.9685,-42 54.7528,-42 76.5962,-54.1919"/>
<polygon fill="none" stroke="#000000" points="80.5824,-51.8397 80.5824,-76.1603 55.7868,-90 24.9345,-90 .1389,-76.1603 .1389,-51.8397 24.9345,-38 55.7868,-38 80.5824,-51.8397"/>
<text text-anchor="middle" x="40.3607" y="-60.3" font-family="Times,serif" font-size="14.00" fill="#000000">www</text>
</g>
<!-- nginx -->
<g id="node2" class="node">
<title>nginx</title>
<ellipse fill="none" stroke="#000000" cx="244.2686" cy="-64" rx="30.5947" ry="18"/>
<text text-anchor="middle" x="244.2686" y="-60.3" font-family="Times,serif" font-size="14.00" fill="#000000">nginx</text>
</g>
<!-- www&#45;&gt;nginx -->
<g id="edge1" class="edge">
<title>www&#45;&gt;nginx</title>
<path fill="none" stroke="#000000" d="M80.6463,-64C116.2459,-64 167.9135,-64 203.6214,-64"/>
<polygon fill="#000000" stroke="#000000" points="203.6985,-67.5001 213.6984,-64 203.6984,-60.5001 203.6985,-67.5001"/>
<text text-anchor="middle" x="147.2213" y="-67.8" font-family="Times,serif" font-size="14.00" fill="#000000">http://pocoweb....</text>
</g>
<!-- pcwauth -->
<g id="node5" class="node">
<title>pcwauth</title>
<ellipse fill="none" stroke="#000000" cx="442.1123" cy="-248" rx="40.0939" ry="18"/>
<text text-anchor="middle" x="442.1123" y="-244.3" font-family="Times,serif" font-size="14.00" fill="#000000">pcwauth</text>
</g>
<!-- nginx&#45;&gt;pcwauth -->
<g id="edge2" class="edge">
<title>nginx&#45;&gt;pcwauth</title>
<path fill="none" stroke="#000000" d="M260.7964,-79.3713C295.5209,-111.666 376.2252,-186.7232 417.2344,-224.8629"/>
<polygon fill="#000000" stroke="#000000" points="414.9396,-227.5084 424.6459,-231.7557 419.7068,-222.3825 414.9396,-227.5084"/>
<text text-anchor="middle" x="338.3159" y="-196.8" font-family="Times,serif" font-size="14.00" fill="#000000">/rest/*</text>
</g>
<!-- wwwd -->
<g id="node11" class="node">
<title>wwwd</title>
<polygon fill="#c0c0c0" stroke="#000000" points="478.6123,-36 475.6123,-40 454.6123,-40 451.6123,-36 405.6123,-36 405.6123,0 478.6123,0 478.6123,-36"/>
<text text-anchor="middle" x="442.1123" y="-14.3" font-family="Times,serif" font-size="14.00" fill="#000000">www&#45;data</text>
</g>
<!-- nginx&#45;&gt;wwwd -->
<g id="edge4" class="edge">
<title>nginx&#45;&gt;wwwd</title>
<path fill="none" stroke="#000000" d="M263.6458,-49.8356C272.183,-44.2984 282.5851,-38.4578 292.8159,-35 325.9766,-23.7924 365.3907,-19.6632 395.3928,-18.2712"/>
<polygon fill="#000000" stroke="#000000" points="395.7262,-21.7612 405.5868,-17.8859 395.4617,-14.7662 395.7262,-21.7612"/>
<text text-anchor="middle" x="338.3159" y="-38.8" font-family="Times,serif" font-size="14.00" fill="#000000">*.css,*.js,*.html</text>
</g>
<!-- projectd -->
<g id="node12" class="node">
<title>projectd</title>
<polygon fill="#c0c0c0" stroke="#000000" points="1094.7784,-133 1091.7784,-137 1070.7784,-137 1067.7784,-133 1013.7784,-133 1013.7784,-97 1094.7784,-97 1094.7784,-133"/>
<text text-anchor="middle" x="1054.2784" y="-111.3" font-family="Times,serif" font-size="14.00" fill="#000000">project&#45;data</text>
</g>
<!-- nginx&#45;&gt;projectd -->
<g id="edge3" class="edge">
<title>nginx&#45;&gt;projectd</title>
<path fill="none" stroke="#000000" d="M275.1107,-64C314.0323,-64 383.034,-64 442.1123,-64 442.1123,-64 442.1123,-64 919.283,-64 953.572,-64 989.7822,-78.5769 1016.0588,-92.1444"/>
<polygon fill="#000000" stroke="#000000" points="1014.4497,-95.2528 1024.9195,-96.8757 1017.7469,-89.078 1014.4497,-95.2528"/>
<text text-anchor="middle" x="668.802" y="-67.8" font-family="Times,serif" font-size="14.00" fill="#000000">/project&#45;data</text>
</g>
<!-- pocoweb -->
<g id="node3" class="node">
<title>pocoweb</title>
<ellipse fill="none" stroke="#000000" cx="919.283" cy="-148" rx="42.4939" ry="18"/>
<text text-anchor="middle" x="919.283" y="-144.3" font-family="Times,serif" font-size="14.00" fill="#000000">pocoweb</text>
</g>
<!-- mysql -->
<g id="node4" class="node">
<title>mysql</title>
<ellipse fill="none" stroke="#000000" cx="1054.2784" cy="-288" rx="32.4942" ry="18"/>
<text text-anchor="middle" x="1054.2784" y="-284.3" font-family="Times,serif" font-size="14.00" fill="#000000">mysql</text>
</g>
<!-- pocoweb&#45;&gt;mysql -->
<g id="edge5" class="edge">
<title>pocoweb&#45;&gt;mysql</title>
<path fill="none" stroke="#000000" stroke-dasharray="1,5" d="M950.4527,-160.2948C964.5306,-167.3215 980.224,-177.4663 990.2784,-191 1009.4353,-216.786 988.944,-235.3469 1008.2784,-261 1011.2568,-264.9517 1014.996,-268.4301 1019.0488,-271.4606"/>
<polygon fill="#000000" stroke="#000000" points="1017.3725,-274.5454 1027.6646,-277.0603 1021.1872,-268.6761 1017.3725,-274.5454"/>
</g>
<!-- pocoweb&#45;&gt;projectd -->
<g id="edge6" class="edge">
<title>pocoweb&#45;&gt;projectd</title>
<path fill="none" stroke="#000000" d="M956.1711,-138.9826C970.7718,-135.4134 987.7969,-131.2516 1003.5268,-127.4064"/>
<polygon fill="#000000" stroke="#000000" points="1004.7552,-130.7092 1013.6381,-124.9346 1003.0929,-123.9094 1004.7552,-130.7092"/>
</g>
<!-- dbd -->
<g id="node14" class="node">
<title>dbd</title>
<polygon fill="#c0c0c0" stroke="#000000" points="1194.2784,-306 1191.2784,-310 1170.2784,-310 1167.2784,-306 1137.2784,-306 1137.2784,-270 1194.2784,-270 1194.2784,-306"/>
<text text-anchor="middle" x="1165.7784" y="-284.3" font-family="Times,serif" font-size="14.00" fill="#000000">db&#45;data</text>
</g>
<!-- mysql&#45;&gt;dbd -->
<g id="edge21" class="edge">
<title>mysql&#45;&gt;dbd</title>
<path fill="none" stroke="#000000" d="M1086.8286,-288C1099.4071,-288 1113.9034,-288 1127.0141,-288"/>
<polygon fill="#000000" stroke="#000000" points="1127.1685,-291.5001 1137.1685,-288 1127.1684,-284.5001 1127.1685,-291.5001"/>
</g>
<!-- pcwauth&#45;&gt;pocoweb -->
<g id="edge7" class="edge">
<title>pcwauth&#45;&gt;pocoweb</title>
<path fill="none" stroke="#000000" d="M452.2131,-230.3706C462.5506,-213.5861 479.9655,-188.5043 500.4087,-172 535.9873,-143.2767 548.7944,-138.0214 593.4087,-128 690.7877,-106.1264 808.3764,-123.8044 872.3051,-136.9739"/>
<polygon fill="#000000" stroke="#000000" points="871.5857,-140.3991 882.0932,-139.0421 873.0328,-133.5503 871.5857,-140.3991"/>
<text text-anchor="middle" x="668.802" y="-131.8" font-family="Times,serif" font-size="14.00" fill="#000000">/books/*</text>
</g>
<!-- pcwauth&#45;&gt;mysql -->
<g id="edge13" class="edge">
<title>pcwauth&#45;&gt;mysql</title>
<path fill="none" stroke="#000000" stroke-dasharray="1,5" d="M444.933,-266.3298C450.287,-294.1871 464.7577,-346.5226 500.4087,-371 628.3553,-458.8459 695.6819,-408.1918 849.2876,-386 905.2364,-377.9169 920.7323,-375.3121 971.2784,-350 992.5058,-339.3699 1013.9083,-323.2195 1029.6622,-310.0672"/>
<polygon fill="#000000" stroke="#000000" points="1032.0165,-312.6594 1037.3548,-303.5077 1027.4746,-307.3329 1032.0165,-312.6594"/>
</g>
<!-- pcwusers -->
<g id="node6" class="node">
<title>pcwusers</title>
<ellipse fill="none" stroke="#000000" cx="805.7415" cy="-364" rx="43.5923" ry="18"/>
<text text-anchor="middle" x="805.7415" y="-360.3" font-family="Times,serif" font-size="14.00" fill="#000000">pcwusers</text>
</g>
<!-- pcwauth&#45;&gt;pcwusers -->
<g id="edge8" class="edge">
<title>pcwauth&#45;&gt;pcwusers</title>
<path fill="none" stroke="#000000" d="M450.4822,-265.7695C459.9286,-283.678 477.0756,-310.5359 500.4087,-324 579.4734,-369.6233 688.8978,-372.1818 753.0119,-368.8259"/>
<polygon fill="#000000" stroke="#000000" points="753.5099,-372.3026 763.2852,-368.2168 753.0956,-365.3149 753.5099,-372.3026"/>
<text text-anchor="middle" x="537.9087" y="-355.8" font-family="Times,serif" font-size="14.00" fill="#000000">/users/*</text>
</g>
<!-- pcwprofiler -->
<g id="node7" class="node">
<title>pcwprofiler</title>
<ellipse fill="none" stroke="#000000" cx="919.283" cy="-240" rx="51.9908" ry="18"/>
<text text-anchor="middle" x="919.283" y="-236.3" font-family="Times,serif" font-size="14.00" fill="#000000">pcwprofiler</text>
</g>
<!-- pcwauth&#45;&gt;pcwprofiler -->
<g id="edge9" class="edge">
<title>pcwauth&#45;&gt;pcwprofiler</title>
<path fill="none" stroke="#000000" d="M481.5628,-244.011C512.064,-241.1355 555.3639,-237.5064 593.4087,-236 685.3091,-232.3612 791.891,-234.9563 857.4559,-237.3356"/>
<polygon fill="#000000" stroke="#000000" points="857.4945,-240.8394 867.618,-237.7147 857.7555,-233.8443 857.4945,-240.8394"/>
<text text-anchor="middle" x="668.802" y="-239.8" font-family="Times,serif" font-size="14.00" fill="#000000">/profile/*</text>
</g>
<!-- pcwpostcorrection -->
<g id="node8" class="node">
<title>pcwpostcorrection</title>
<ellipse fill="none" stroke="#000000" cx="668.802" cy="-170" rx="75.2868" ry="18"/>
<text text-anchor="middle" x="668.802" y="-166.3" font-family="Times,serif" font-size="14.00" fill="#000000">pcwpostcorrection</text>
</g>
<!-- pcwauth&#45;&gt;pcwpostcorrection -->
<g id="edge10" class="edge">
<title>pcwauth&#45;&gt;pcwpostcorrection</title>
<path fill="none" stroke="#000000" d="M457.2249,-230.8858C468.0987,-219.7062 483.7364,-205.785 500.4087,-198 526.3576,-185.8833 556.7101,-178.9245 584.4444,-174.956"/>
<polygon fill="#000000" stroke="#000000" points="585.0746,-178.4033 594.5308,-173.6253 584.1589,-171.4635 585.0746,-178.4033"/>
<text text-anchor="middle" x="537.9087" y="-201.8" font-family="Times,serif" font-size="14.00" fill="#000000">/postcorrect/*</text>
</g>
<!-- pcwpkg -->
<g id="node9" class="node">
<title>pcwpkg</title>
<ellipse fill="none" stroke="#000000" cx="805.7415" cy="-323" rx="38.1938" ry="18"/>
<text text-anchor="middle" x="805.7415" y="-319.3" font-family="Times,serif" font-size="14.00" fill="#000000">pcwpkg</text>
</g>
<!-- pcwauth&#45;&gt;pcwpkg -->
<g id="edge11" class="edge">
<title>pcwauth&#45;&gt;pcwpkg</title>
<path fill="none" stroke="#000000" d="M463.9676,-263.3225C474.5665,-270.1681 487.7252,-277.8383 500.4087,-283 585.8379,-317.7664 694.7909,-323.8403 756.7647,-324.1045"/>
<polygon fill="#000000" stroke="#000000" points="757.0379,-327.6044 767.0351,-324.0965 757.0323,-320.6044 757.0379,-327.6044"/>
<text text-anchor="middle" x="537.9087" y="-308.8" font-family="Times,serif" font-size="14.00" fill="#000000">/pkg/*</text>
</g>
<!-- pcwpool -->
<g id="node10" class="node">
<title>pcwpool</title>
<ellipse fill="none" stroke="#000000" cx="668.802" cy="-278" rx="40.8928" ry="18"/>
<text text-anchor="middle" x="668.802" y="-274.3" font-family="Times,serif" font-size="14.00" fill="#000000">pcwpool</text>
</g>
<!-- pcwauth&#45;&gt;pcwpool -->
<g id="edge12" class="edge">
<title>pcwauth&#45;&gt;pcwpool</title>
<path fill="none" stroke="#000000" d="M480.8241,-253.1231C519.1421,-258.1941 577.9459,-265.9761 619.5662,-271.4841"/>
<polygon fill="#000000" stroke="#000000" points="619.1169,-274.9551 629.4897,-272.7974 620.0353,-268.0156 619.1169,-274.9551"/>
<text text-anchor="middle" x="537.9087" y="-267.8" font-family="Times,serif" font-size="14.00" fill="#000000">/pool/*</text>
</g>
<!-- pcwusers&#45;&gt;mysql -->
<g id="edge20" class="edge">
<title>pcwusers&#45;&gt;mysql</title>
<path fill="none" stroke="#000000" stroke-dasharray="1,5" d="M845.0303,-356.0833C878.8841,-348.8332 928.8538,-337.1027 971.2784,-323 987.5909,-317.5774 1005.1974,-310.3587 1019.9792,-303.8859"/>
<polygon fill="#000000" stroke="#000000" points="1021.5278,-307.0278 1029.243,-299.7666 1018.6836,-300.6317 1021.5278,-307.0278"/>
</g>
<!-- pcwprofiler&#45;&gt;mysql -->
<g id="edge16" class="edge">
<title>pcwprofiler&#45;&gt;mysql</title>
<path fill="none" stroke="#000000" stroke-dasharray="1,5" d="M955.8147,-252.9895C974.832,-259.7514 998.0364,-268.0022 1017.1415,-274.7953"/>
<polygon fill="#000000" stroke="#000000" points="1016.1199,-278.1467 1026.7146,-278.1992 1018.4651,-271.5512 1016.1199,-278.1467"/>
</g>
<!-- pcwprofiler&#45;&gt;projectd -->
<g id="edge15" class="edge">
<title>pcwprofiler&#45;&gt;projectd</title>
<path fill="none" stroke="#000000" d="M937.7705,-222.8814C960.905,-201.4598 1000.7051,-164.6066 1027.2563,-140.0213"/>
<polygon fill="#000000" stroke="#000000" points="1029.7435,-142.4883 1034.703,-133.126 1024.9875,-137.3521 1029.7435,-142.4883"/>
</g>
<!-- languaged -->
<g id="node13" class="node">
<title>languaged</title>
<polygon fill="#c0c0c0" stroke="#000000" points="1100.2784,-252 1097.2784,-256 1076.2784,-256 1073.2784,-252 1008.2784,-252 1008.2784,-216 1100.2784,-216 1100.2784,-252"/>
<text text-anchor="middle" x="1054.2784" y="-230.3" font-family="Times,serif" font-size="14.00" fill="#000000">language&#45;data</text>
</g>
<!-- pcwprofiler&#45;&gt;languaged -->
<g id="edge14" class="edge">
<title>pcwprofiler&#45;&gt;languaged</title>
<path fill="none" stroke="#000000" d="M971.0897,-237.6974C979.8542,-237.3079 988.9924,-236.9017 997.8676,-236.5072"/>
<polygon fill="#000000" stroke="#000000" points="998.2928,-239.9919 1008.1275,-236.0512 997.9819,-232.9988 998.2928,-239.9919"/>
</g>
<!-- pcwpostcorrection&#45;&gt;pocoweb -->
<g id="edge18" class="edge">
<title>pcwpostcorrection&#45;&gt;pocoweb</title>
<path fill="none" stroke="#000000" d="M739.5755,-163.7839C780.3041,-160.2067 830.5771,-155.7911 867.5839,-152.5408"/>
<polygon fill="#000000" stroke="#000000" points="867.9956,-156.0182 877.651,-151.6566 867.3831,-149.045 867.9956,-156.0182"/>
</g>
<!-- pcwpostcorrection&#45;&gt;mysql -->
<g id="edge19" class="edge">
<title>pcwpostcorrection&#45;&gt;mysql</title>
<path fill="none" stroke="#000000" stroke-dasharray="1,5" d="M742.3082,-174.1098C819.0923,-179.5077 933.5283,-191.0004 971.2784,-213 994.5506,-226.5623 988.0713,-243.1898 1008.2784,-261 1012.173,-264.4327 1016.568,-267.6568 1021.0573,-270.599"/>
<polygon fill="#000000" stroke="#000000" points="1019.3439,-273.6538 1029.7,-275.8903 1022.9989,-267.6838 1019.3439,-273.6538"/>
</g>
<!-- pcwpostcorrection&#45;&gt;projectd -->
<g id="edge17" class="edge">
<title>pcwpostcorrection&#45;&gt;projectd</title>
<path fill="none" stroke="#000000" d="M714.7884,-155.728C754.6785,-144.0546 814.1945,-128.3225 867.2876,-121 913.0213,-114.6925 965.6141,-113.5395 1003.3511,-113.7616"/>
<polygon fill="#000000" stroke="#000000" points="1003.5504,-117.2636 1013.5829,-113.8576 1003.6162,-110.2639 1003.5504,-117.2636"/>
</g>
<!-- pcwpkg&#45;&gt;mysql -->
<g id="edge22" class="edge">
<title>pcwpkg&#45;&gt;mysql</title>
<path fill="none" stroke="#000000" stroke-dasharray="1,5" d="M843.2998,-319.0023C880.6548,-314.8655 939.5572,-307.9083 990.2784,-300 997.8119,-298.8254 1005.8181,-297.4368 1013.5251,-296.0285"/>
<polygon fill="#000000" stroke="#000000" points="1014.2312,-299.4572 1023.4194,-294.1821 1012.947,-292.576 1014.2312,-299.4572"/>
</g>
<!-- pcwpool&#45;&gt;mysql -->
<g id="edge23" class="edge">
<title>pcwpool&#45;&gt;mysql</title>
<path fill="none" stroke="#000000" stroke-dasharray="1,5" d="M709.6898,-279.0607C783.1584,-280.9666 936.7931,-284.9522 1011.5664,-286.892"/>
<polygon fill="#000000" stroke="#000000" points="1011.4898,-290.3911 1021.5772,-287.1517 1011.6714,-283.3934 1011.4898,-290.3911"/>
</g>
</g>
</svg>
